<svg width="397" height="896" viewBox="0 0 397 896" fill="none" xmlns="http://www.w3.org/2000/svg">
<rect width="397" height="896" fill="#F5F5F5"/>
<path d="M0 0H199.5H399V896H0V0Z" fill="#4718AD"/>
<path opacity="0.18" d="M266.671 125.769C255.482 139.55 248.514 156.684 238.871 171.738C231.737 182.986 223.033 193.057 215.78 204.258C201.321 226.564 192.593 253.758 194.187 280.928C195.78 308.097 208.455 334.922 229.584 349.797C242.557 358.941 257.907 363.281 273.175 366.099C324.577 375.611 379.903 368.286 423.826 337.954C431.365 332.746 438.583 326.872 446.763 322.925C467.773 312.77 495.026 315.124 510.258 296.48C519.426 285.256 521.447 269.204 521.138 254.234C520.769 236.255 517.25 217.373 506.298 203.889C492.03 186.208 468.725 181.476 449.438 170.596C430.64 160.049 415.479 143.462 399.332 128.647C360.486 92.9874 304.601 79.0518 266.671 125.769Z" fill="#2F1073"/>
<path d="M453.041 273.341C453.044 274.442 452.82 275.531 452.384 276.541C451.949 277.551 451.31 278.462 450.509 279.215C449.136 280.519 447.364 281.324 445.479 281.498C445.127 281.528 444.773 281.528 444.421 281.498L385.361 280.309C383.097 280.285 380.932 279.378 379.326 277.781C377.72 276.184 376.801 274.024 376.764 271.76C376.76 270.66 376.98 269.57 377.412 268.558C377.843 267.546 378.476 266.633 379.273 265.874C380.913 264.315 383.099 263.462 385.361 263.496H387.37C386.955 262.038 386.743 260.53 386.74 259.013C386.737 256.846 387.176 254.701 388.031 252.71C388.885 250.719 390.137 248.923 391.71 247.432C393.099 246.105 394.708 245.03 396.467 244.257C398.745 243.265 401.211 242.778 403.696 242.831L408.714 242.938C411.835 243.001 414.883 243.902 417.537 245.546C420.191 247.19 422.355 249.517 423.803 252.283C425.25 251.595 426.838 251.257 428.44 251.297H429.736C432.424 251.324 434.995 252.399 436.903 254.293C438.81 256.188 439.904 258.751 439.95 261.439V261.927C439.949 262.853 439.813 263.774 439.546 264.661L444.433 264.757C446.702 264.787 448.871 265.701 450.478 267.303C452.085 268.906 453.004 271.072 453.041 273.341Z" fill="white"/>
<path d="M445.479 281.498C445.127 281.528 444.773 281.528 444.421 281.498L385.361 280.309C383.097 280.285 380.932 279.378 379.326 277.781C377.72 276.184 376.801 274.024 376.764 271.76C376.76 270.66 376.98 269.57 377.412 268.558C377.843 267.546 378.476 266.633 379.273 265.874C376.895 280.464 392.174 278.371 392.174 278.371H430.545L445.479 281.498Z" fill="url(#paint0_linear_0_1)"/>
<path d="M391.699 265.256L387.406 263.627C386.991 262.169 386.778 260.66 386.776 259.144C386.773 256.977 387.212 254.832 388.066 252.841C388.921 250.849 390.173 249.053 391.746 247.563C393.134 246.235 394.744 245.161 396.502 244.388C384.624 254.566 391.699 265.256 391.699 265.256Z" fill="url(#paint1_linear_0_1)"/>
<path opacity="0.23" d="M320.047 356.36C361.773 356.36 395.599 325.809 395.599 288.121C395.599 250.434 361.773 219.882 320.047 219.882C278.321 219.882 244.495 250.434 244.495 288.121C244.495 325.809 278.321 356.36 320.047 356.36Z" fill="#2F1073"/>
<path d="M413.85 276.814C413.87 292.656 408.714 308.071 399.166 320.713L399.011 320.927C388.548 334.716 373.525 344.338 356.623 348.072C339.721 351.807 322.042 349.412 306.744 341.315C291.445 333.217 279.523 319.946 273.106 303.87C266.69 287.793 266.197 269.96 271.716 253.554C277.234 237.148 288.405 223.238 303.234 214.308C318.062 205.378 335.581 202.01 352.664 204.806C369.746 207.601 385.278 216.378 396.486 229.568C407.695 242.759 413.849 259.504 413.85 276.814Z" fill="#2F1073"/>
<path d="M317.395 240.916C313.388 242.569 308.965 242.961 304.851 244.317C300.737 245.672 296.611 248.407 295.553 252.64C295.006 254.769 295.291 257.135 294.245 259.061C292.853 261.653 289.595 262.628 287.622 264.768C283.864 268.906 286.337 276.005 290.927 279.203C295.517 282.402 301.379 282.889 306.872 283.829C308.376 283.949 309.808 284.516 310.986 285.458C314.185 288.514 310.642 294.043 311.997 298.252C312.758 300.63 315.005 302.259 316.028 304.542C317.99 308.894 315.017 313.698 313.055 318.049C309.517 325.989 309.197 334.992 312.163 343.162C312.027 343.359 311.876 343.546 311.712 343.721C303.887 340.287 296.72 335.515 290.535 329.619C284.506 321.165 279.738 311.95 280.238 301.819C280.511 296.326 282.342 291.023 282.687 285.553C283.258 276.671 280.047 267.028 284.399 259.275C286.777 254.983 291.415 250.274 288.823 246.112C284.245 246.778 279.31 246.885 275.113 245.292C280.263 234.562 287.959 225.255 297.529 218.179C307.1 211.104 318.255 206.476 330.023 204.698C334.541 217.611 330.95 235.209 317.395 240.916Z" fill="url(#paint2_linear_0_1)"/>
<path d="M413.85 276.813C413.855 281.43 413.421 286.036 412.554 290.571C410.616 292.147 408.799 293.868 407.12 295.719C401.354 302.473 400.105 311.843 399.166 320.689C399.166 320.879 399.166 321.069 399.106 321.248C399.106 321.129 399.106 321.022 399.011 320.903C398.552 318.631 397.562 316.5 396.122 314.684C394.481 312.913 391.568 312.033 389.57 313.424C388.619 311.046 387.664 308.688 386.705 306.349C380.759 306.349 374.624 306.349 369.035 304.245C363.447 302.14 358.822 298.109 354.351 294.173C354.938 287.354 354.81 280.491 353.97 273.698C371.337 271.813 387.401 263.597 399.094 250.619C388.637 250.097 378.268 252.772 369.368 258.288C367.466 259.477 365.54 260.809 363.316 260.999C361.907 261.034 360.502 260.842 359.155 260.428L344.779 256.778C342.984 247.527 349.392 238.241 357.633 233.663C363.816 230.238 371.318 230.904 377.252 227.908C381.318 225.863 382.507 222.284 386.063 219.656H386.134C394.77 226.472 401.751 235.155 406.551 245.054C411.351 254.953 413.847 265.812 413.85 276.813Z" fill="url(#paint3_linear_0_1)"/>
<path d="M363.459 262.034C363.031 263.437 362.627 265.078 363.459 266.255C363.868 266.758 364.406 267.14 365.016 267.361C365.727 267.7 366.517 267.836 367.299 267.754C368.082 267.672 368.827 267.375 369.452 266.897C370.104 266.183 370.566 265.316 370.795 264.376C371.907 260.964 372.703 257.458 373.173 253.901C373.263 253.574 373.263 253.229 373.173 252.902C372.988 252.559 372.689 252.29 372.329 252.141C370.439 251.13 367.478 250.322 366.384 252.557C365.04 255.434 364.41 258.99 363.459 262.034Z" fill="#FBC4D6"/>
<path d="M369.178 263.663C369.577 263.608 369.984 263.644 370.367 263.77C370.628 263.914 370.855 264.113 371.033 264.352L375.135 268.954C375.932 269.846 376.764 271.07 376.205 272.129C376.008 272.423 375.748 272.67 375.444 272.851C375.139 273.032 374.798 273.143 374.446 273.175C372.459 273.357 370.461 272.965 368.691 272.045C367.43 271.498 366.182 270.856 364.957 270.262C364.047 269.849 363.251 269.22 362.638 268.431C361.699 267.004 361.449 263.579 363.09 262.485C363.934 261.95 364.672 262.331 365.468 262.699C366.607 263.32 367.881 263.651 369.178 263.663Z" fill="#2F1073"/>
<path d="M386.193 277.705C386.225 277.97 386.197 278.238 386.11 278.49C385.968 278.734 385.763 278.936 385.515 279.073C384.736 279.61 383.822 279.918 382.876 279.964C382.403 279.982 381.933 279.89 381.502 279.697C381.071 279.503 380.691 279.212 380.391 278.847C379.953 278.155 379.688 277.368 379.618 276.552C379.269 274.798 379.098 273.013 379.107 271.225C379.086 271.12 379.088 271.011 379.113 270.907C379.139 270.803 379.187 270.706 379.253 270.622C379.32 270.539 379.404 270.47 379.5 270.422C379.596 270.375 379.701 270.348 379.808 270.345C381.282 270.036 384.219 269.263 384.969 271.07C385.732 273.201 386.145 275.442 386.193 277.705Z" fill="#FBC4D6"/>
<path d="M392.436 277.527C393.703 277.595 394.955 277.835 396.157 278.24C396.755 278.447 397.304 278.774 397.771 279.202C398.237 279.629 398.611 280.148 398.868 280.725C399.109 281.291 399.138 281.924 398.952 282.509C398.541 283.377 397.82 284.061 396.93 284.423C392.704 286.669 387.937 287.694 383.161 287.384C381.936 287.433 380.739 287.007 379.82 286.195C379.157 285.213 378.847 284.035 378.94 282.854L378.774 277.265C379.85 277.313 380.9 277.61 381.841 278.133C383.601 278.728 384.291 277.301 385.741 276.944C387.632 276.504 390.51 277.337 392.436 277.527Z" fill="#2F1073"/>
<path d="M369.178 263.663C369.577 263.608 369.984 263.644 370.367 263.77C370.628 263.914 370.855 264.113 371.033 264.352L375.135 268.954C375.932 269.846 376.764 271.07 376.205 272.129C376.008 272.423 375.748 272.67 375.444 272.851C375.139 273.032 374.798 273.143 374.446 273.175C372.459 273.357 370.461 272.965 368.691 272.045C367.43 271.498 366.182 270.856 364.957 270.262C364.047 269.849 363.251 269.22 362.638 268.431C361.699 267.004 361.449 263.579 363.09 262.485C363.934 261.95 364.672 262.331 365.468 262.699C366.607 263.32 367.881 263.651 369.178 263.663Z" fill="url(#paint4_linear_0_1)"/>
<path d="M392.436 277.527C393.703 277.595 394.955 277.835 396.157 278.24C396.755 278.447 397.304 278.774 397.771 279.202C398.237 279.629 398.611 280.148 398.868 280.725C399.109 281.291 399.138 281.924 398.952 282.509C398.541 283.377 397.82 284.061 396.93 284.423C392.704 286.669 387.937 287.694 383.161 287.384C381.936 287.433 380.739 287.007 379.82 286.195C379.157 285.213 378.847 284.035 378.94 282.854L378.774 277.265C379.85 277.313 380.9 277.61 381.841 278.133C383.601 278.728 384.291 277.301 385.741 276.944C387.632 276.504 390.51 277.337 392.436 277.527Z" fill="url(#paint5_linear_0_1)"/>
<path d="M324.696 216.981C322.138 216.759 319.565 216.799 317.015 217.1C316.681 217.117 316.358 217.219 316.076 217.397C315.913 217.55 315.783 217.734 315.693 217.938C315.603 218.143 315.555 218.363 315.552 218.586C315.196 222.034 317.93 225.031 320.879 226.85C328.858 231.796 338.917 231.606 347.728 234.84C348.568 235.063 349.315 235.551 349.856 236.231C350.224 236.969 350.403 237.786 350.379 238.61C350.772 243.259 353.352 247.444 354.208 252.022C355.064 256.6 354.149 261.392 354.85 266.005C357.74 262.925 362.662 262.438 365.552 259.394C368.263 256.588 368.798 252.402 369.202 248.526L370.296 237.896C370.499 237.13 370.415 236.315 370.06 235.606C369.706 234.897 369.105 234.341 368.37 234.044C355.361 225.637 340.118 218.313 324.696 216.981Z" fill="url(#paint6_linear_0_1)"/>
<path d="M377.299 215.911C378.501 216.152 379.615 216.715 380.522 217.54C381.452 218.834 381.875 220.425 381.711 222.01C381.683 233.293 379.549 244.471 375.421 254.971C375.382 255.34 375.253 255.694 375.046 256.002C374.839 256.309 374.559 256.562 374.232 256.737C373.905 256.911 373.539 257.003 373.168 257.004C372.797 257.005 372.432 256.915 372.103 256.742C369.631 256.075 367.194 255.281 364.803 254.364L368.037 232.962C368.191 232.368 368.158 231.74 367.942 231.166C367.703 230.759 367.368 230.416 366.967 230.167C363.278 227.484 359.381 225.098 355.314 223.033C352.068 221.392 348.346 219.466 347.466 215.994C347.284 215.401 347.247 214.772 347.359 214.162C347.47 213.551 347.728 212.976 348.108 212.486C348.623 211.981 349.228 211.578 349.892 211.297C352.044 210.239 354.755 208.919 357.228 209.133C359.214 209.335 359.975 210.477 361.628 211.321C366.218 213.604 372.317 214.46 377.299 215.911Z" fill="#282328"/>
<path d="M355.207 181.868C356.8 186.256 357.585 190.905 358.988 195.34C359.295 196.516 359.846 197.614 360.605 198.563C361.614 199.53 362.836 200.247 364.172 200.655C366.035 201.377 367.93 202.007 369.856 202.546C371.14 202.891 372.674 203.485 372.817 204.793C372.847 205.229 372.756 205.665 372.555 206.054C372.058 206.939 371.343 207.683 370.477 208.214C369.611 208.745 368.623 209.045 367.609 209.086C365.583 209.14 363.566 208.809 361.663 208.111C359.931 207.76 358.342 206.903 357.097 205.649C356.39 204.606 355.893 203.435 355.635 202.201C353.684 195.274 350.976 188.583 347.561 182.249C346.54 180.576 345.74 178.777 345.183 176.898C344.398 173.616 344.387 165.84 347.775 168.694C350.51 171.001 354.006 178.61 355.207 181.868Z" fill="#FBC4D6"/>
<path d="M342.234 215.494C344.239 214.718 346.189 213.808 348.073 212.772C355.207 208.824 349.369 206.886 346.991 202.141C345.29 198.776 345.98 194.746 346.86 191.095C348.417 184.674 350.498 178.016 349 171.607C348.813 170.567 348.408 169.578 347.811 168.706C347.375 168.164 346.871 167.681 346.313 167.267C344.807 165.966 343.073 164.954 341.2 164.282C337.633 163.093 333.59 163.961 330.201 165.662C316.884 172.344 314.042 189.217 314.577 202.712C314.72 206.458 315.303 210.417 317.716 213.283C320.13 216.148 323.543 217.242 327.038 217.67C332.205 218.199 337.423 217.451 342.234 215.494Z" fill="white"/>
<path d="M322.377 207.861C322.485 209.127 322.892 210.35 323.566 211.428C324.755 213.105 326.943 213.723 328.953 214.21L338.001 216.446C339.104 216.78 340.25 216.952 341.402 216.957C343.875 216.838 346.004 215.257 347.966 213.735C348.467 213.392 348.902 212.961 349.25 212.462C344.256 211.987 339.274 211.487 334.303 210.762C331.378 210.334 328.287 209.74 326.135 207.73C325.023 206.632 324.177 205.294 323.662 203.818C323.305 202.903 323.138 200.572 322.104 200.37C321.843 202.867 321.935 205.389 322.377 207.861Z" fill="url(#paint7_linear_0_1)"/>
<path d="M340.237 174.734C340.236 175.109 340.086 175.468 339.821 175.733C339.573 175.878 339.285 175.937 339 175.899C338.068 175.856 337.157 175.613 336.327 175.187C335.497 174.761 334.768 174.163 334.188 173.431C333.609 172.7 333.194 171.853 332.969 170.948C332.745 170.042 332.718 169.099 332.888 168.182C333.103 166.993 333.614 165.971 333.935 164.853C334.565 162.618 334.458 160.097 335.873 158.254C337.098 161.057 338.496 163.781 340.058 166.411C340.458 166.934 340.736 167.539 340.871 168.183C341.007 168.827 340.997 169.493 340.843 170.132L340.237 174.734Z" fill="#FBC4D6"/>
<path d="M340.938 168.979L340.403 172.546C340.403 172.546 334.28 169.514 335.077 163.89C335.873 158.266 340.938 168.979 340.938 168.979Z" fill="url(#paint8_linear_0_1)"/>
<path d="M348.096 165.507C347.782 166.65 347.117 167.665 346.194 168.408C345.754 168.707 345.262 168.92 344.743 169.038C342.922 169.392 341.037 169.16 339.356 168.376C337.675 167.592 336.285 166.297 335.385 164.675C334.537 163.032 334.054 161.225 333.968 159.379C333.882 157.532 334.195 155.688 334.886 153.973C335.452 152.093 336.733 150.509 338.453 149.562C339.394 149.191 340.412 149.059 341.416 149.177C342.42 149.295 343.379 149.66 344.208 150.24C346.46 151.812 348.201 154.012 349.214 156.565C350.082 159.169 348.988 163.022 348.096 165.507Z" fill="#FBC4D6"/>
<path d="M374.981 230.857C376.505 232.798 377.709 234.969 378.548 237.29C383.224 248.567 386.263 260.455 387.573 272.592C383.755 273.068 379.892 273.068 376.075 272.592C375.776 264.024 374.454 255.521 372.139 247.266C371.73 245.489 371.026 243.793 370.058 242.248C368.358 239.787 365.563 238.36 362.924 237.028C356.747 234.027 350.292 231.637 343.649 229.894C340.843 229.121 338.013 228.408 335.255 227.516C332.936 226.731 326.432 223.854 324.553 222.296C323.569 221.549 322.745 220.612 322.132 219.539C321.519 218.466 321.129 217.281 320.986 216.053C320.986 216.672 339.107 217.908 340.403 217.766C344.767 217.302 349.916 214.805 354.22 216.577C357.585 217.956 360.665 220.833 363.732 222.819C367.454 225.15 371.996 227.409 374.981 230.857Z" fill="#473F47"/>
<path d="M355.124 229.941L333.007 219.133L358.94 208.134L381.069 217.801L355.124 229.941Z" fill="#2F1073"/>
<path d="M321.438 179.193C321.438 179.609 321.331 180.013 321.283 180.382C320.629 186.47 321.224 192.439 321.45 198.491C321.593 202.237 322.08 209.371 326.063 211.285C333.507 214.852 347.87 213.497 347.87 213.497C349.536 213.23 351.238 213.299 352.876 213.699C353.768 213.972 354.589 214.436 355.457 214.769C358.596 215.958 362.103 215.364 365.409 214.769C365.978 214.701 366.528 214.519 367.026 214.234C367.603 213.722 367.955 213.003 368.006 212.233C368.057 211.463 367.803 210.704 367.299 210.12C366.226 208.992 364.831 208.224 363.304 207.92C359.13 206.558 354.658 206.385 350.391 207.421C349.846 207.605 349.29 207.755 348.727 207.873C348.066 207.98 347.398 208.027 346.729 208.015H341.664C335.837 208.015 330.344 208.087 329.464 201.273C329.139 198.75 329.075 196.2 329.274 193.664C329.619 189.086 330.82 184.544 330.57 179.966C330.555 178.514 330.192 177.087 329.512 175.804C329.167 175.167 328.664 174.629 328.052 174.242C327.44 173.855 326.739 173.631 326.016 173.593C325.267 173.648 324.545 173.897 323.92 174.313C323.295 174.73 322.788 175.301 322.449 175.971C321.922 176.976 321.58 178.067 321.438 179.193Z" fill="#FBC4D6"/>
<path d="M390.177 195.994L359.262 211.725L355.124 229.941L381.069 217.801L390.177 195.994Z" fill="#2F1073"/>
<path d="M349.618 158.943C349.584 157.811 349.165 156.725 348.429 155.864C348.056 155.43 347.614 155.061 347.121 154.77C346.432 154.366 346.265 154.33 345.813 154.984C345.231 155.828 345.041 156.815 344.505 157.695C343.92 158.671 343.103 159.488 342.127 160.073C341.031 160.754 339.755 161.089 338.465 161.036C337.953 160.959 337.432 160.959 336.919 161.036C336.747 161.069 336.584 161.139 336.443 161.242C336.301 161.344 336.183 161.477 336.099 161.631C335.976 162.075 335.932 162.538 335.968 162.998C335.861 164.187 334.684 165.031 334.03 166.066C333.376 167.1 333.186 168.634 332.401 169.74C332.255 169.962 332.055 170.142 331.818 170.263C331.26 170.501 330.629 170.192 330.047 170.085C328.323 169.788 326.931 171.393 325.457 172.368C322.496 174.318 318.62 173.818 315.124 173.236C314.054 173.106 313.011 172.809 312.033 172.356C310.976 171.732 310.038 170.927 309.262 169.978C307.966 168.551 306.682 167.1 305.41 165.65C304.937 165.185 304.561 164.632 304.304 164.021C304.168 163.595 304.131 163.143 304.197 162.701C304.313 161.875 304.558 161.073 304.922 160.323C305.85 158.242 306.932 155.983 309.024 155.043C311.117 154.104 313.59 154.806 315.897 154.568C316.178 154.567 316.452 154.48 316.682 154.318C316.865 154.111 316.996 153.862 317.062 153.593C318.025 150.394 319.226 146.922 322.104 145.269C324.321 144.204 326.821 143.875 329.238 144.33C331.632 144.782 334.074 144.922 336.503 144.746C337.692 144.556 338.881 144.164 340.07 143.926C342.851 143.308 345.761 143.731 348.251 145.115C349.48 145.846 350.507 146.871 351.242 148.097C351.977 149.324 352.395 150.714 352.46 152.142C352.412 152.7 352.412 153.261 352.46 153.819C352.543 154.342 352.769 154.853 352.853 155.376C352.901 155.829 352.854 156.286 352.713 156.718C352.572 157.151 352.341 157.549 352.036 157.886C351.73 158.223 351.357 158.491 350.94 158.673C350.524 158.856 350.073 158.948 349.618 158.943Z" fill="#FF681C"/>
<path d="M320.356 182.57C319.989 185.935 319.95 189.328 320.237 192.7C320.223 192.993 320.297 193.283 320.451 193.533C320.704 193.809 321.053 193.98 321.426 194.008C323.352 194.367 325.306 194.554 327.264 194.567C327.539 194.655 327.83 194.681 328.116 194.644C328.402 194.606 328.677 194.506 328.92 194.351C329.163 194.195 329.368 193.988 329.522 193.744C329.676 193.5 329.774 193.225 329.809 192.938C330.879 188.467 331.937 183.997 332.746 179.466C333.067 177.647 333.293 175.602 332.199 174.128C330.618 171.987 326.349 171.75 324.292 173.307C321.807 175.222 320.748 179.692 320.356 182.57Z" fill="white"/>
<path d="M354.006 176.863L357.371 184.924C357.537 185.238 357.604 185.595 357.561 185.947C357.476 186.236 357.311 186.495 357.086 186.696C355.442 188.434 353.491 189.853 351.331 190.881C349.339 189.102 347.722 186.943 346.575 184.532C345.457 181.666 345.707 178.48 346.039 175.424C346.242 173.486 346.17 167.255 349.464 169.669C351.759 171.322 352.972 174.377 354.006 176.863Z" fill="white"/>
<path d="M293.139 252.486C293.14 253.585 292.917 254.672 292.483 255.682C292.05 256.692 291.415 257.603 290.618 258.359C289.244 259.661 287.473 260.465 285.588 260.642C285.236 260.66 284.883 260.66 284.53 260.642L225.47 259.453C223.203 259.429 221.035 258.521 219.427 256.922C217.819 255.323 216.899 253.159 216.862 250.892C216.861 249.793 217.084 248.706 217.517 247.696C217.95 246.686 218.585 245.775 219.382 245.018C220.191 244.241 221.145 243.631 222.189 243.223C223.234 242.815 224.349 242.617 225.47 242.64H227.48C227.059 241.179 226.846 239.666 226.85 238.146C226.846 235.979 227.284 233.833 228.139 231.842C228.994 229.85 230.246 228.055 231.82 226.564C233.206 225.238 234.816 224.167 236.576 223.402C238.854 222.408 241.321 221.921 243.805 221.975L248.823 222.082C251.925 222.139 254.956 223.023 257.604 224.64C260.252 226.258 262.421 228.551 263.888 231.285C265.339 230.608 266.925 230.27 268.526 230.298H269.822C272.509 230.332 275.077 231.411 276.982 233.307C278.886 235.202 279.977 237.766 280.024 240.452V240.94C280.028 241.862 279.896 242.78 279.631 243.663L284.518 243.77C286.814 243.792 289.009 244.72 290.623 246.353C292.238 247.985 293.142 250.189 293.139 252.486Z" fill="white"/>
<path d="M285.588 260.642C285.236 260.66 284.883 260.66 284.53 260.642L225.47 259.453C223.203 259.429 221.035 258.52 219.427 256.922C217.819 255.323 216.899 253.159 216.862 250.892C216.861 249.793 217.084 248.706 217.517 247.696C217.95 246.686 218.585 245.775 219.382 245.018C217.064 259.596 232.284 257.515 232.284 257.515H270.654L285.588 260.642Z" fill="url(#paint9_linear_0_1)"/>
<path d="M231.76 244.4L227.48 242.771C227.059 241.31 226.846 239.797 226.85 238.277C226.846 236.109 227.284 233.964 228.139 231.973C228.994 229.981 230.246 228.185 231.82 226.695C233.206 225.369 234.816 224.298 236.576 223.532C224.721 233.711 231.76 244.4 231.76 244.4Z" fill="url(#paint10_linear_0_1)"/>
<path d="M448.927 183.378C448.928 184.478 448.704 185.567 448.268 186.577C447.833 187.587 447.195 188.498 446.395 189.252C445.016 190.554 443.241 191.358 441.353 191.535C441.001 191.565 440.647 191.565 440.295 191.535L381.247 190.346C378.999 190.316 376.85 189.416 375.251 187.835C373.653 186.255 372.729 184.116 372.674 181.868C372.661 180.758 372.878 179.657 373.309 178.635C373.741 177.612 374.379 176.689 375.183 175.923C376.828 174.365 379.017 173.511 381.283 173.545H383.28C382.865 172.087 382.652 170.578 382.65 169.062C382.647 166.895 383.086 164.75 383.94 162.759C384.795 160.768 386.047 158.972 387.62 157.481C389.007 156.152 390.617 155.077 392.376 154.306C394.654 153.311 397.121 152.824 399.606 152.879L404.623 152.986C407.726 153.044 410.756 153.928 413.403 155.548C416.049 157.168 418.215 159.465 419.677 162.202C421.124 161.515 422.712 161.177 424.314 161.215H425.61C428.298 161.242 430.869 162.317 432.777 164.211C434.684 166.106 435.778 168.669 435.824 171.357V171.845C435.823 172.771 435.687 173.692 435.42 174.579L440.307 174.675C442.599 174.703 444.788 175.631 446.401 177.26C448.014 178.888 448.921 181.086 448.927 183.378Z" fill="white"/>
<path d="M441.365 191.535C441.013 191.565 440.659 191.565 440.307 191.535L381.259 190.346C379.009 190.319 376.857 189.421 375.256 187.839C373.655 186.258 372.729 184.118 372.674 181.868C372.661 180.758 372.878 179.657 373.309 178.635C373.741 177.612 374.379 176.689 375.183 175.923C372.805 190.513 388.084 188.42 388.084 188.42H426.454L441.365 191.535Z" fill="url(#paint11_linear_0_1)"/>
<path d="M387.549 175.293L383.256 173.664C382.841 172.206 382.629 170.697 382.626 169.181C382.623 167.014 383.062 164.869 383.917 162.878C384.771 160.887 386.023 159.091 387.596 157.6C388.983 156.271 390.593 155.196 392.352 154.425C380.51 164.604 387.549 175.293 387.549 175.293Z" fill="url(#paint12_linear_0_1)"/>
<path d="M337.003 161.06C336.83 161.093 336.668 161.163 336.526 161.266C336.384 161.369 336.267 161.501 336.182 161.655C336.059 162.099 336.015 162.562 336.051 163.022C335.944 164.211 334.767 165.055 334.113 166.09C333.459 167.124 333.269 168.658 332.484 169.764C332.339 169.986 332.138 170.166 331.902 170.287C331.343 170.525 330.713 170.216 330.13 170.109C328.406 169.812 327.015 171.417 325.54 172.392C322.579 174.342 318.703 173.842 315.207 173.26C314.107 173.131 313.035 172.826 312.033 172.356C310.976 171.733 310.038 170.928 309.262 169.978C307.966 168.551 306.682 167.101 305.41 165.65C304.937 165.185 304.561 164.632 304.304 164.021C304.168 163.595 304.131 163.143 304.197 162.701C304.751 162.366 305.327 162.068 305.921 161.809C307.744 160.831 309.874 160.597 311.866 161.155C313.46 161.774 314.589 163.189 315.957 164.199C317.863 165.534 320.183 166.148 322.501 165.93C324.818 165.712 326.983 164.677 328.608 163.01C329.207 162.221 329.911 161.517 330.701 160.918C332.116 160.145 334.993 160.264 337.003 161.06Z" fill="url(#paint13_linear_0_1)"/>
<path d="M91.8174 213.38C94.4834 213.38 96.0386 211.952 97.9111 209.063L103.338 200.558H111.336C121.048 200.558 126.983 194.559 126.983 184.942V159.615C126.983 149.999 121.048 144 111.336 144H71.6318C61.9517 144 56.0166 149.967 56.0166 159.615V184.942C56.0166 194.591 61.9517 200.558 71.6318 200.558H80.2329L85.7236 209.095C87.5327 211.92 89.1514 213.38 91.8174 213.38Z" fill="white"/>
<path d="M81.9601 180.764V163.964H85.0321V170.948H92.5681V163.964H95.6401V180.764H92.5681V173.444H85.0321V180.764H81.9601ZM100.489 167.012C99.9294 167.012 99.4654 166.844 99.0974 166.508C98.7454 166.172 98.5694 165.748 98.5694 165.236C98.5694 164.724 98.7454 164.308 99.0974 163.988C99.4654 163.652 99.9294 163.484 100.489 163.484C101.049 163.484 101.505 163.652 101.857 163.988C102.225 164.308 102.409 164.724 102.409 165.236C102.409 165.748 102.225 166.172 101.857 166.508C101.505 166.844 101.049 167.012 100.489 167.012ZM98.9534 180.764V168.86H102.025V180.764H98.9534Z" fill="#4718AD"/>
<path d="M53.136 253.788L48.6 236.964H51.336L54.672 250.884L58.512 236.964H61.32L65.04 250.884L68.376 236.964H71.112L66.504 253.764H63.528L59.856 240.588L56.064 253.764L53.136 253.788ZM77.676 254.052C76.508 254.052 75.468 253.796 74.556 253.284C73.66 252.756 72.956 252.028 72.444 251.1C71.932 250.172 71.676 249.092 71.676 247.86C71.676 246.612 71.924 245.516 72.42 244.572C72.932 243.628 73.636 242.892 74.532 242.364C75.444 241.836 76.5 241.572 77.7 241.572C78.868 241.572 79.884 241.836 80.748 242.364C81.612 242.876 82.284 243.564 82.764 244.428C83.244 245.292 83.484 246.244 83.484 247.284C83.484 247.444 83.476 247.62 83.46 247.812C83.46 247.988 83.452 248.188 83.436 248.412H74.172C74.252 249.564 74.628 250.444 75.3 251.052C75.988 251.644 76.78 251.94 77.676 251.94C78.396 251.94 78.996 251.78 79.476 251.46C79.972 251.124 80.34 250.676 80.58 250.116H83.124C82.804 251.236 82.164 252.172 81.204 252.924C80.26 253.676 79.084 254.052 77.676 254.052ZM77.676 243.66C76.828 243.66 76.076 243.916 75.42 244.428C74.764 244.924 74.364 245.676 74.22 246.684H80.94C80.892 245.756 80.564 245.02 79.956 244.476C79.348 243.932 78.588 243.66 77.676 243.66ZM86.1236 253.764V236.484H88.6676V253.764H86.1236ZM97.5293 254.052C96.3613 254.052 95.3133 253.788 94.3853 253.26C93.4733 252.732 92.7533 252.004 92.2253 251.076C91.7133 250.132 91.4573 249.044 91.4573 247.812C91.4573 246.58 91.7133 245.5 92.2253 244.572C92.7533 243.628 93.4733 242.892 94.3853 242.364C95.3133 241.836 96.3613 241.572 97.5293 241.572C99.0013 241.572 100.233 241.956 101.225 242.724C102.233 243.492 102.881 244.532 103.169 245.844H100.505C100.345 245.188 99.9933 244.676 99.4493 244.308C98.9053 243.94 98.2653 243.756 97.5293 243.756C96.9053 243.756 96.3293 243.916 95.8013 244.236C95.2733 244.54 94.8493 244.996 94.5293 245.604C94.2093 246.196 94.0493 246.932 94.0493 247.812C94.0493 248.692 94.2093 249.436 94.5293 250.044C94.8493 250.636 95.2733 251.092 95.8013 251.412C96.3293 251.732 96.9053 251.892 97.5293 251.892C98.2653 251.892 98.9053 251.708 99.4493 251.34C99.9933 250.972 100.345 250.452 100.505 249.78H103.169C102.897 251.06 102.257 252.092 101.249 252.876C100.241 253.66 99.0013 254.052 97.5293 254.052ZM111.496 254.052C110.36 254.052 109.336 253.796 108.424 253.284C107.528 252.756 106.816 252.028 106.288 251.1C105.76 250.156 105.496 249.06 105.496 247.812C105.496 246.564 105.76 245.476 106.288 244.548C106.832 243.604 107.56 242.876 108.472 242.364C109.384 241.836 110.4 241.572 111.52 241.572C112.656 241.572 113.672 241.836 114.568 242.364C115.48 242.876 116.2 243.604 116.728 244.548C117.272 245.476 117.544 246.564 117.544 247.812C117.544 249.06 117.272 250.156 116.728 251.1C116.2 252.028 115.48 252.756 114.568 253.284C113.656 253.796 112.632 254.052 111.496 254.052ZM111.496 251.868C112.104 251.868 112.664 251.716 113.176 251.412C113.704 251.108 114.128 250.66 114.448 250.068C114.768 249.46 114.928 248.708 114.928 247.812C114.928 246.916 114.768 246.172 114.448 245.58C114.144 244.972 113.728 244.516 113.2 244.212C112.688 243.908 112.128 243.756 111.52 243.756C110.912 243.756 110.344 243.908 109.816 244.212C109.304 244.516 108.888 244.972 108.568 245.58C108.248 246.172 108.088 246.916 108.088 247.812C108.088 248.708 108.248 249.46 108.568 250.068C108.888 250.66 109.304 251.108 109.816 251.412C110.328 251.716 110.888 251.868 111.496 251.868ZM120.296 253.764V241.86H122.552L122.768 243.54C123.152 242.932 123.656 242.452 124.28 242.1C124.92 241.748 125.656 241.572 126.488 241.572C128.376 241.572 129.688 242.316 130.424 243.804C130.856 243.116 131.432 242.572 132.152 242.172C132.888 241.772 133.68 241.572 134.528 241.572C136.016 241.572 137.184 242.02 138.032 242.916C138.88 243.812 139.304 245.148 139.304 246.924V253.764H136.76V247.188C136.76 244.884 135.88 243.732 134.12 243.732C133.224 243.732 132.488 244.068 131.911 244.74C131.352 245.412 131.072 246.372 131.072 247.62V253.764H128.528V247.188C128.528 244.884 127.64 243.732 125.864 243.732C124.984 243.732 124.256 244.068 123.68 244.74C123.12 245.412 122.84 246.372 122.84 247.62V253.764H120.296ZM147.848 254.052C146.68 254.052 145.64 253.796 144.728 253.284C143.832 252.756 143.128 252.028 142.616 251.1C142.104 250.172 141.848 249.092 141.848 247.86C141.848 246.612 142.096 245.516 142.592 244.572C143.104 243.628 143.808 242.892 144.704 242.364C145.616 241.836 146.672 241.572 147.872 241.572C149.04 241.572 150.056 241.836 150.92 242.364C151.784 242.876 152.456 243.564 152.936 244.428C153.416 245.292 153.656 246.244 153.656 247.284C153.656 247.444 153.648 247.62 153.632 247.812C153.632 247.988 153.624 248.188 153.608 248.412H144.344C144.424 249.564 144.8 250.444 145.472 251.052C146.16 251.644 146.952 251.94 147.848 251.94C148.568 251.94 149.168 251.78 149.648 251.46C150.144 251.124 150.512 250.676 150.752 250.116H153.296C152.976 251.236 152.336 252.172 151.376 252.924C150.432 253.676 149.256 254.052 147.848 254.052ZM147.848 243.66C147 243.66 146.248 243.916 145.592 244.428C144.936 244.924 144.536 245.676 144.392 246.684H151.112C151.064 245.756 150.736 245.02 150.128 244.476C149.52 243.932 148.76 243.66 147.848 243.66ZM49.704 284.764V267.964H56.04C57.784 267.964 59.104 268.372 60 269.188C60.896 270.004 61.344 271.028 61.344 272.26C61.344 273.332 61.056 274.188 60.48 274.828C59.904 275.452 59.208 275.876 58.392 276.1C59.032 276.228 59.6 276.484 60.096 276.868C60.608 277.252 61.008 277.732 61.296 278.308C61.584 278.884 61.728 279.508 61.728 280.18C61.728 281.044 61.512 281.828 61.08 282.532C60.664 283.22 60.048 283.764 59.232 284.164C58.416 284.564 57.416 284.764 56.232 284.764H49.704ZM52.248 275.164H55.728C56.704 275.164 57.448 274.94 57.96 274.492C58.472 274.028 58.728 273.396 58.728 272.596C58.728 271.812 58.472 271.188 57.96 270.724C57.464 270.26 56.704 270.028 55.68 270.028H52.248V275.164ZM52.248 282.676H55.896C56.92 282.676 57.712 282.436 58.272 281.956C58.848 281.476 59.136 280.804 59.136 279.94C59.136 279.076 58.84 278.396 58.248 277.9C57.656 277.388 56.856 277.132 55.848 277.132H52.248V282.676ZM68.4525 285.052C67.4445 285.052 66.6125 284.884 65.9565 284.548C65.3005 284.212 64.8125 283.772 64.4925 283.228C64.1725 282.668 64.0125 282.06 64.0125 281.404C64.0125 280.252 64.4605 279.34 65.3565 278.668C66.2525 277.996 67.5325 277.66 69.1965 277.66H72.3165V277.444C72.3165 276.516 72.0605 275.82 71.5485 275.356C71.0525 274.892 70.4045 274.66 69.6045 274.66C68.9005 274.66 68.2845 274.836 67.7565 275.188C67.2445 275.524 66.9325 276.028 66.8205 276.7H64.2765C64.3565 275.836 64.6445 275.1 65.1405 274.492C65.6525 273.868 66.2925 273.396 67.0605 273.076C67.8445 272.74 68.7005 272.572 69.6285 272.572C71.2925 272.572 72.5805 273.012 73.4925 273.892C74.4045 274.756 74.8605 275.94 74.8605 277.444V284.764H72.6525L72.4365 282.724C72.1005 283.38 71.6125 283.932 70.9725 284.38C70.3325 284.828 69.4925 285.052 68.4525 285.052ZM68.9565 282.988C69.6445 282.988 70.2205 282.828 70.6845 282.508C71.1645 282.172 71.5325 281.732 71.7885 281.188C72.0605 280.644 72.2285 280.044 72.2925 279.388H69.4605C68.4525 279.388 67.7325 279.564 67.3005 279.916C66.8845 280.268 66.6765 280.708 66.6765 281.236C66.6765 281.78 66.8765 282.212 67.2765 282.532C67.6925 282.836 68.2525 282.988 68.9565 282.988ZM83.4668 285.052C82.2988 285.052 81.2508 284.788 80.3228 284.26C79.4108 283.732 78.6908 283.004 78.1628 282.076C77.6508 281.132 77.3948 280.044 77.3948 278.812C77.3948 277.58 77.6508 276.5 78.1628 275.572C78.6908 274.628 79.4108 273.892 80.3228 273.364C81.2508 272.836 82.2988 272.572 83.4668 272.572C84.9388 272.572 86.1708 272.956 87.1628 273.724C88.1708 274.492 88.8188 275.532 89.1068 276.844H86.4428C86.2828 276.188 85.9308 275.676 85.3868 275.308C84.8428 274.94 84.2028 274.756 83.4668 274.756C82.8428 274.756 82.2668 274.916 81.7388 275.236C81.2108 275.54 80.7868 275.996 80.4668 276.604C80.1468 277.196 79.9868 277.932 79.9868 278.812C79.9868 279.692 80.1468 280.436 80.4668 281.044C80.7868 281.636 81.2108 282.092 81.7388 282.412C82.2668 282.732 82.8428 282.892 83.4668 282.892C84.2028 282.892 84.8428 282.708 85.3868 282.34C85.9308 281.972 86.2828 281.452 86.4428 280.78H89.1068C88.8348 282.06 88.1948 283.092 87.1868 283.876C86.1788 284.66 84.9388 285.052 83.4668 285.052ZM91.8658 284.764V267.484H94.4098V277.78L98.9698 272.86H102.018L96.9538 278.26L102.762 284.764H99.5458L94.4098 278.668V284.764H91.8658ZM105.261 279.796L104.973 267.964H107.709L107.421 279.796H105.261ZM106.413 284.908C105.917 284.908 105.509 284.756 105.189 284.452C104.885 284.132 104.733 283.756 104.733 283.324C104.733 282.876 104.885 282.5 105.189 282.196C105.509 281.876 105.917 281.716 106.413 281.716C106.877 281.716 107.261 281.876 107.565 282.196C107.885 282.5 108.045 282.876 108.045 283.324C108.045 283.756 107.885 284.132 107.565 284.452C107.261 284.756 106.877 284.908 106.413 284.908Z" fill="white"/>
<defs>
<linearGradient id="paint0_linear_0_1" x1="413.541" y1="308.014" x2="408.155" y2="238.621" gradientUnits="userSpaceOnUse">
<stop offset="0.01"/>
<stop offset="0.13" stop-opacity="0.69"/>
<stop offset="0.25" stop-opacity="0.32"/>
<stop offset="1" stop-opacity="0"/>
</linearGradient>
<linearGradient id="paint1_linear_0_1" x1="1956.42" y1="3388.53" x2="2534.22" y2="3263.22" gradientUnits="userSpaceOnUse">
<stop offset="0.01"/>
<stop offset="0.13" stop-opacity="0.69"/>
<stop offset="0.25" stop-opacity="0.32"/>
<stop offset="1" stop-opacity="0"/>
</linearGradient>
<linearGradient id="paint2_linear_0_1" x1="7195.84" y1="36368.7" x2="147.041" y2="-14563.9" gradientUnits="userSpaceOnUse">
<stop offset="0.01"/>
<stop offset="0.13" stop-opacity="0.69"/>
<stop offset="0.25" stop-opacity="0.32"/>
<stop offset="1" stop-opacity="0"/>
</linearGradient>
<linearGradient id="paint3_linear_0_1" x1="13092.2" y1="26292.2" x2="9973.43" y2="-11383" gradientUnits="userSpaceOnUse">
<stop offset="0.01"/>
<stop offset="0.13" stop-opacity="0.69"/>
<stop offset="0.25" stop-opacity="0.32"/>
<stop offset="1" stop-opacity="0"/>
</linearGradient>
<linearGradient id="paint4_linear_0_1" x1="-12525.7" y1="1863.1" x2="-12769.2" y2="2022.31" gradientUnits="userSpaceOnUse">
<stop offset="0.01"/>
<stop offset="0.13" stop-opacity="0.69"/>
<stop offset="0.25" stop-opacity="0.32"/>
<stop offset="1" stop-opacity="0"/>
</linearGradient>
<linearGradient id="paint5_linear_0_1" x1="-17771.5" y1="2088.6" x2="-17842" y2="1785.38" gradientUnits="userSpaceOnUse">
<stop offset="0.01"/>
<stop offset="0.13" stop-opacity="0.69"/>
<stop offset="0.25" stop-opacity="0.32"/>
<stop offset="1" stop-opacity="0"/>
</linearGradient>
<linearGradient id="paint6_linear_0_1" x1="-51193.4" y1="4468.18" x2="-54539.2" y2="9644.78" gradientUnits="userSpaceOnUse">
<stop offset="0.01"/>
<stop offset="0.13" stop-opacity="0.69"/>
<stop offset="0.25" stop-opacity="0.32"/>
<stop offset="1" stop-opacity="0"/>
</linearGradient>
<linearGradient id="paint7_linear_0_1" x1="4545.14" y1="1467.96" x2="3996.21" y2="2783.49" gradientUnits="userSpaceOnUse">
<stop offset="0.01"/>
<stop offset="0.13" stop-opacity="0.69"/>
<stop offset="0.25" stop-opacity="0.32"/>
<stop offset="1" stop-opacity="0"/>
</linearGradient>
<linearGradient id="paint8_linear_0_1" x1="-4490.36" y1="743.259" x2="-4611.9" y2="896.426" gradientUnits="userSpaceOnUse">
<stop offset="0.01"/>
<stop offset="0.13" stop-opacity="0.69"/>
<stop offset="0.25" stop-opacity="0.32"/>
<stop offset="1" stop-opacity="0"/>
</linearGradient>
<linearGradient id="paint9_linear_0_1" x1="5158.31" y1="2818.18" x2="5142.06" y2="1900.18" gradientUnits="userSpaceOnUse">
<stop offset="0.01"/>
<stop offset="0.13" stop-opacity="0.69"/>
<stop offset="0.25" stop-opacity="0.32"/>
<stop offset="1" stop-opacity="0"/>
</linearGradient>
<linearGradient id="paint10_linear_0_1" x1="488.49" y1="3001.44" x2="1066.31" y2="2876.21" gradientUnits="userSpaceOnUse">
<stop offset="0.01"/>
<stop offset="0.13" stop-opacity="0.69"/>
<stop offset="0.25" stop-opacity="0.32"/>
<stop offset="1" stop-opacity="0"/>
</linearGradient>
<linearGradient id="paint11_linear_0_1" x1="14311.6" y1="1839.93" x2="14295.3" y2="922.252" gradientUnits="userSpaceOnUse">
<stop offset="0.01"/>
<stop offset="0.13" stop-opacity="0.69"/>
<stop offset="0.25" stop-opacity="0.32"/>
<stop offset="1" stop-opacity="0"/>
</linearGradient>
<linearGradient id="paint12_linear_0_1" x1="1918.62" y1="1719.71" x2="2496.42" y2="1594.41" gradientUnits="userSpaceOnUse">
<stop offset="0.01"/>
<stop offset="0.13" stop-opacity="0.69"/>
<stop offset="0.25" stop-opacity="0.32"/>
<stop offset="1" stop-opacity="0"/>
</linearGradient>
<linearGradient id="paint13_linear_0_1" x1="5357.19" y1="1236.37" x2="4675.07" y2="-39.5643" gradientUnits="userSpaceOnUse">
<stop offset="0.01"/>
<stop offset="0.13" stop-opacity="0.69"/>
<stop offset="0.25" stop-opacity="0.32"/>
<stop offset="1" stop-opacity="0"/>
</linearGradient>
</defs>
</svg>
