<svg width="370" height="812" viewBox="0 0 370 812" fill="none" xmlns="http://www.w3.org/2000/svg">
<g clip-path="url(#clip0_99_277)">
<rect width="375" height="812" transform="translate(-2)" fill="#F5F5F5"/>
<path d="M-29 -72H183.75H396.5V824H-17.5L-29 -72Z" fill="#4718AD"/>
<path opacity="0.18" d="M-27.2886 89.001C-43.8496 98.3625 -58.5216 111.817 -66.8965 128.882C-75.2715 145.947 -76.6988 164.921 -77.5804 183.644C-78.462 204.634 -78.357 225.624 -73.2145 245.984C-68.4498 264.728 -59.4871 282.15 -49.433 298.669C-42.0445 310.801 -33.7115 322.891 -21.7893 330.637C-13.0453 335.907 -3.37945 339.469 6.69398 341.131C40.7168 347.717 75.9617 342.891 106.963 327.404C130.052 315.818 150.118 298.543 174.487 290.336C195.876 283.136 219.888 283.115 239.157 271.445C263.169 256.752 274.168 225.393 268.291 197.876C262.414 170.358 241.739 147.5 216.677 134.654C202.467 127.392 187.102 123.194 172.787 116.414C158.472 109.634 145.395 100.357 131.437 92.8212C81.5649 65.8492 22.9611 60.5807 -27.2886 89.001Z" fill="#2F1073"/>
<path d="M143.695 165.173L146.487 166.349C147.506 166.627 148.383 167.279 148.942 168.175C149.234 169.121 149.182 170.139 148.795 171.05C148.418 172.289 147.977 173.527 147.494 174.745C146.864 176.361 146.13 177.956 145.647 179.614C144.702 183.809 144.531 188.141 145.143 192.397C145.143 193.782 143.38 194.496 142.016 194.685C139.443 195.226 136.774 195.089 134.27 194.286C134.039 194.221 133.824 194.107 133.641 193.95C133.413 193.659 133.308 193.29 133.347 192.922C133.2 190.634 133.2 188.262 132.885 186.163C132.76 185.018 132.528 183.886 132.192 182.784C131.955 181.702 131.772 180.609 131.647 179.509C131.458 178.628 131.185 177.767 131.038 176.886C130.857 175.996 130.922 175.075 131.227 174.22C131.605 173.296 132.13 172.436 132.591 171.554C133.085 170.595 133.52 169.607 133.893 168.595C134.094 167.856 134.397 167.149 134.795 166.496C135.297 165.9 135.924 165.422 136.631 165.095C137.339 164.769 138.109 164.602 138.888 164.606C140.513 164.445 142.153 164.638 143.695 165.173V165.173Z" fill="#FFBBAB"/>
<path d="M126.504 154.322C125.709 153.323 125.065 152.213 124.594 151.026C124.066 149.508 123.741 147.928 123.629 146.324C123.543 145.749 123.586 145.161 123.755 144.603C124.027 143.848 124.699 143.281 124.909 142.504C124.94 142.423 124.94 142.334 124.909 142.252C124.909 142.252 124.804 142.085 124.636 142.085L123.755 141.854C123.902 141.136 123.783 140.39 123.419 139.755C123.312 139.523 123.14 139.329 122.923 139.194C122.707 139.06 122.456 138.992 122.201 138.999C121.656 138.999 121.383 139.692 120.921 140.007C120.459 140.321 119.955 140.363 119.557 140.678C119.132 141.136 118.893 141.734 118.885 142.357C118.856 143.868 119.083 145.372 119.557 146.807C119.858 148.482 120.265 150.137 120.774 151.761C122.388 156.769 124.97 161.411 128.372 165.425C129.674 166.958 134.669 173.003 136.642 171.449C139.434 169.35 137.608 165.887 135.677 164.229C132.227 161.313 129.146 157.986 126.504 154.322V154.322Z" fill="#FFBBAB"/>
<path d="M138.238 164.166C137.293 165.614 136.369 167.104 135.509 168.616C135.345 168.84 135.227 169.095 135.162 169.365C135.097 169.635 135.087 169.916 135.131 170.19C135.288 170.546 135.572 170.831 135.929 170.987C136.661 171.315 137.465 171.452 138.265 171.386C139.065 171.32 139.835 171.053 140.504 170.61C141.823 169.681 142.991 168.556 143.968 167.272C144.495 166.562 145.15 165.957 145.899 165.488C146.28 165.261 146.715 165.141 147.158 165.141C147.602 165.141 148.037 165.261 148.418 165.488C148.601 165.605 148.756 165.759 148.875 165.941C148.994 166.122 149.073 166.327 149.107 166.541C149.14 166.756 149.128 166.975 149.071 167.184C149.014 167.393 148.913 167.588 148.774 167.755C148.774 167.083 147.956 166.664 147.305 166.831C146.673 167.091 146.148 167.557 145.815 168.154C145.309 168.874 144.846 169.624 144.43 170.4C144.094 170.968 143.846 171.584 143.695 172.226C143.652 173.022 143.769 173.818 144.04 174.568C144.31 175.318 144.728 176.006 145.269 176.592C145.659 177.056 145.971 177.581 146.193 178.145C146.353 179.051 146.281 179.982 145.983 180.853C145.217 184.551 145.025 188.346 145.416 192.103C145.514 192.463 145.526 192.841 145.449 193.206C145.372 193.571 145.21 193.912 144.975 194.202C144.57 194.519 144.062 194.676 143.548 194.643C141.134 194.643 138.741 194.097 136.307 194.16C134.815 194.321 133.315 194.398 131.815 194.391C131.705 194.405 131.594 194.39 131.491 194.348C131.389 194.306 131.299 194.239 131.229 194.153C131.16 194.067 131.114 193.965 131.095 193.856C131.076 193.747 131.086 193.635 131.122 193.531C131.794 189.366 131.9 185.13 131.437 180.937C130.932 179.035 130.623 177.087 130.513 175.122C130.494 174.691 130.573 174.26 130.744 173.863C130.938 173.48 131.185 173.127 131.479 172.814C133.056 170.911 134.189 168.681 134.795 166.286" fill="white"/>
<path opacity="0.1" d="M144.346 183.581C144.361 183.932 144.296 184.281 144.153 184.601C144.011 184.922 143.797 185.205 143.527 185.429C143.353 185.507 143.184 185.598 143.023 185.701C142.708 185.995 142.75 186.499 142.687 186.919C142.419 187.689 142.005 188.402 141.47 189.018C141.216 189.345 141.079 189.748 141.079 190.162C141.079 190.576 141.216 190.978 141.47 191.306C141.848 191.683 142.478 191.746 142.792 192.187C143.107 192.628 142.792 194.055 143.443 194.496C143.655 194.586 143.892 194.597 144.111 194.528C144.33 194.459 144.518 194.313 144.639 194.118C144.865 193.721 144.987 193.274 144.996 192.817C145.486 188.101 145.934 183.365 146.34 178.607C146.396 178.358 146.388 178.099 146.319 177.853C146.249 177.607 146.119 177.383 145.941 177.2C145.626 176.76 145.206 175.92 144.744 175.689C144.22 176.466 144.619 178.145 144.619 179.048C144.535 180.58 144.472 182.091 144.346 183.581Z" fill="#020202"/>
<path d="M132.843 155.98C132.568 156.334 132.387 156.753 132.319 157.197C132.371 157.51 132.485 157.81 132.654 158.079C132.956 158.74 133.134 159.452 133.179 160.178C133.161 160.723 133.299 161.262 133.578 161.731C133.823 161.964 134.114 162.142 134.432 162.254C134.75 162.366 135.089 162.41 135.425 162.382H136.978C137.164 162.33 137.36 162.33 137.545 162.382C137.716 162.47 137.856 162.609 137.944 162.781C138.426 163.914 138.717 165.12 138.804 166.349C138.848 166.557 138.941 166.752 139.077 166.916C139.184 167.068 139.329 167.191 139.497 167.272C140.59 167.703 141.805 167.703 142.897 167.272C143.179 167.187 143.423 167.01 143.59 166.769C143.697 166.463 143.697 166.13 143.59 165.824C143.471 164.979 143.288 164.144 143.044 163.326C142.607 162.253 142.379 161.106 142.373 159.947C142.373 158.918 142.939 157.974 143.107 156.966C143.23 155.902 143.008 154.827 142.476 153.898C141.943 152.969 141.128 152.235 140.148 151.803C139.314 151.474 138.417 151.336 137.523 151.402C136.629 151.467 135.761 151.733 134.984 152.181C134.418 152.474 133.956 152.621 133.683 153.23C133.41 153.839 133.347 155.119 132.843 155.98Z" fill="#FFBBAB"/>
<path d="M132.99 149.725C132.899 149.339 132.849 148.945 132.843 148.549C132.843 147.206 133.62 145.674 134.942 145.632C135.887 145.632 136.726 146.345 137.692 146.345C138.089 146.292 138.482 146.207 138.867 146.093C139.876 145.862 140.923 145.862 141.932 146.093C144.111 146.479 146.053 147.699 147.347 149.494C147.991 150.409 148.354 151.492 148.391 152.611C148.428 153.729 148.138 154.834 147.557 155.791C146.864 156.84 145.794 157.596 145.059 158.624C144.707 159.267 144.322 159.89 143.905 160.492C143.527 160.933 142.645 161.647 142.016 161.332C141.386 161.017 141.344 159.989 140.903 159.548C141.335 159.207 141.749 158.842 142.142 158.456C142.333 158.261 142.465 158.016 142.525 157.749C142.584 157.482 142.568 157.203 142.477 156.945C142.226 156.441 141.365 156.336 141.155 156.945C141.22 156.238 141.122 155.526 140.867 154.863C140.612 154.201 140.208 153.606 139.686 153.125C139.535 152.938 139.35 152.781 139.14 152.663C138.911 152.621 138.676 152.621 138.447 152.663C137.797 152.663 137.167 152.663 136.516 152.663C135.404 152.663 134.858 152.978 134.061 152.034C133.514 151.367 133.145 150.573 132.99 149.725Z" fill="#FC682D"/>
<path d="M139.287 162.592C139.461 162.576 139.634 162.629 139.77 162.738C139.882 162.882 139.941 163.06 139.938 163.242C140.022 164.171 140.022 165.105 139.938 166.034C139.914 166.281 139.851 166.522 139.749 166.748C139.688 166.857 139.6 166.95 139.494 167.016C139.387 167.082 139.265 167.12 139.14 167.125C138.867 167.125 138.636 166.894 138.342 166.832C138.189 166.798 138.03 166.8 137.878 166.836C137.725 166.873 137.583 166.943 137.461 167.041C137.224 167.246 137.013 167.479 136.831 167.734C136.366 168.321 135.853 168.868 135.299 169.371C135.673 168.096 136.239 166.886 136.978 165.782C137.146 165.463 137.41 165.206 137.734 165.047C137.986 165.047 138.3 165.047 138.468 164.774C138.636 164.502 138.468 163.977 138.279 163.62C138.091 163.263 137.608 162.759 137.902 162.508C138.195 162.256 139.035 162.571 139.287 162.592Z" fill="#E0A194"/>
<path d="M159.521 157.638C160.35 156.862 161.122 156.027 161.83 155.14C163.857 152.608 164.967 149.463 164.979 146.219C164.905 145.866 164.905 145.502 164.979 145.149C165.022 144.977 165.114 144.822 165.245 144.703C165.376 144.583 165.539 144.505 165.713 144.477C165.867 144.498 166.022 144.498 166.175 144.477C166.406 144.477 166.511 144.162 166.7 143.994C166.857 143.896 167.039 143.843 167.225 143.843C167.41 143.843 167.592 143.896 167.749 143.994C168.071 144.197 168.349 144.461 168.568 144.771C168.904 145.233 169.24 145.716 169.533 146.198C169.799 146.568 169.959 147.004 169.995 147.458C169.907 148.19 169.538 148.859 168.967 149.326C168.316 149.326 167.812 151.068 167.644 151.425C167.309 152.369 166.931 153.314 166.511 154.216C164.008 159.673 160.306 164.495 155.68 168.322C154.127 169.602 148.25 174.619 146.487 172.835C144.073 170.274 146.487 167.188 148.586 165.866C152.562 163.593 156.236 160.829 159.521 157.638V157.638Z" fill="#FFBBAB"/>
<path d="M131.668 159.59H131.479C131.491 159.577 131.505 159.566 131.522 159.559C131.538 159.551 131.555 159.547 131.573 159.547C131.591 159.547 131.609 159.551 131.625 159.559C131.641 159.566 131.656 159.577 131.668 159.59V159.59Z" fill="#2F1073"/>
<path d="M166.637 154.447C166.569 155.582 166.246 156.687 165.692 157.68C162.339 164.718 156.607 170.345 149.509 173.569C149.102 173.701 148.734 173.932 148.439 174.241C148.225 174.536 148.075 174.872 147.998 175.227C146.382 181.524 146.738 187.947 145.584 194.244C145.546 194.807 145.316 195.341 144.933 195.755C144.379 196.148 143.693 196.306 143.023 196.196H141.659C138.418 196.021 135.188 195.677 131.982 195.168C131.419 195.139 130.887 194.899 130.492 194.496C130.221 193.995 130.146 193.412 130.282 192.859C130.433 188.535 130.258 184.206 129.758 179.908C129.579 177.813 129.579 175.706 129.758 173.611C130.021 172.564 130.021 171.468 129.758 170.421C129.637 170.115 129.467 169.831 129.254 169.581C128.337 168.707 127.37 167.887 126.357 167.125C124.964 165.543 123.971 163.65 123.461 161.605C122.495 158.708 121.488 155.833 120.564 152.936C119.871 150.837 120.963 149.851 122.537 149.053C123.104 148.759 123.733 148.486 124.384 148.192C124.941 150.436 125.744 152.611 126.777 154.678C127.798 156.72 129.446 158.383 131.479 159.422C131.445 159.422 131.413 159.435 131.39 159.459C131.366 159.482 131.353 159.515 131.353 159.548C131.353 159.626 131.372 159.704 131.408 159.773C131.445 159.843 131.498 159.902 131.563 159.947C132.969 161.248 134.396 162.528 135.761 163.851C136.024 164.125 136.347 164.333 136.705 164.46C137.125 164.46 138.573 164.082 138.51 164.858C138.52 164.9 138.52 164.943 138.51 164.984C138.51 165.257 138.258 165.467 138.216 165.74C138.209 165.906 138.251 166.07 138.337 166.212C138.423 166.354 138.549 166.467 138.699 166.538C138.998 166.687 139.333 166.745 139.665 166.705C140.031 166.683 140.392 166.606 140.735 166.475C141.302 166.244 141.764 165.845 142.31 165.572C143.142 165.26 144.05 165.209 144.912 165.425C145.853 165.496 146.799 165.439 147.725 165.257C150.403 164.633 152.88 163.34 154.924 161.5C157.782 158.73 160.433 155.755 162.859 152.6C163.129 152.237 163.482 151.942 163.887 151.74C164.23 151.626 164.598 151.614 164.947 151.703C165.297 151.792 165.614 151.98 165.86 152.243C166.14 152.534 166.354 152.881 166.488 153.261C166.622 153.641 166.673 154.046 166.637 154.447Z" fill="white"/>
<path d="M166.637 154.447C166.569 155.582 166.246 156.687 165.692 157.68C162.339 164.718 156.607 170.345 149.509 173.569C149.102 173.701 148.734 173.932 148.439 174.241C148.225 174.536 148.075 174.872 147.998 175.227C146.382 181.524 146.738 187.947 145.584 194.244C145.546 194.807 145.316 195.341 144.933 195.755C144.379 196.148 143.693 196.306 143.023 196.196H141.659C138.418 196.021 135.188 195.677 131.982 195.168C131.419 195.139 130.887 194.899 130.492 194.496C130.221 193.995 130.146 193.412 130.282 192.859C130.433 188.535 130.258 184.206 129.758 179.908C129.579 177.813 129.579 175.706 129.758 173.611C130.021 172.564 130.021 171.468 129.758 170.421C129.637 170.115 129.467 169.831 129.254 169.581C128.337 168.707 127.37 167.887 126.357 167.125C124.964 165.543 123.971 163.65 123.461 161.605C122.495 158.708 121.488 155.833 120.564 152.936C119.871 150.837 120.963 149.851 122.537 149.053C123.104 148.759 123.733 148.486 124.384 148.192C124.941 150.436 125.744 152.611 126.777 154.678C127.798 156.72 129.446 158.383 131.479 159.422C131.445 159.422 131.413 159.435 131.39 159.459C131.366 159.482 131.353 159.515 131.353 159.548C131.353 159.626 131.372 159.704 131.408 159.773C131.445 159.843 131.498 159.902 131.563 159.947C132.969 161.248 134.396 162.528 135.761 163.851C136.024 164.125 136.347 164.333 136.705 164.46C137.125 164.46 138.573 164.082 138.51 164.858C138.52 164.9 138.52 164.943 138.51 164.984C138.51 165.257 138.258 165.467 138.216 165.74C138.209 165.906 138.251 166.07 138.337 166.212C138.423 166.354 138.549 166.467 138.699 166.538C138.998 166.687 139.333 166.745 139.665 166.705C140.031 166.683 140.392 166.606 140.735 166.475C141.302 166.244 141.764 165.845 142.31 165.572C143.142 165.26 144.05 165.209 144.912 165.425C145.853 165.496 146.799 165.439 147.725 165.257C150.403 164.633 152.88 163.34 154.924 161.5C157.782 158.73 160.433 155.755 162.859 152.6C163.129 152.237 163.482 151.942 163.887 151.74C164.23 151.626 164.598 151.614 164.947 151.703C165.297 151.792 165.614 151.98 165.86 152.243C166.14 152.534 166.354 152.881 166.488 153.261C166.622 153.641 166.673 154.046 166.637 154.447Z" fill="url(#paint0_linear_99_277)"/>
<path d="M129.8 170.337C129.632 170.085 129.485 169.812 129.296 169.581C128.379 168.707 127.412 167.887 126.399 167.125C125.006 165.543 124.013 163.65 123.503 161.605C122.537 158.708 121.53 155.833 120.606 152.936C119.913 150.837 121.005 149.851 122.579 149.053C122.902 149.354 123.159 149.719 123.335 150.123C123.661 151.013 123.893 151.935 124.027 152.873C124.545 155.016 125.441 157.048 126.672 158.876C127.91 160.849 129.086 162.864 130.324 164.837C130.397 164.948 130.454 165.068 130.492 165.194C130.543 165.387 130.543 165.589 130.492 165.782C130.244 166.558 130.089 167.362 130.03 168.175C129.926 168.679 130.198 170.064 129.8 170.337Z" fill="url(#paint1_linear_99_277)"/>
<path d="M166.637 154.448C166.569 155.582 166.246 156.687 165.692 157.68C162.339 164.718 156.607 170.345 149.509 173.569C149.102 173.701 148.734 173.932 148.439 174.241C148.225 174.536 148.075 174.872 147.998 175.227C146.382 181.524 146.739 187.947 145.584 194.244C145.546 194.808 145.316 195.341 144.933 195.756C144.379 196.148 143.693 196.306 143.023 196.196H141.659C141.265 196.169 140.887 196.031 140.568 195.798C140.264 195.508 140.071 195.122 140.022 194.706C139.738 192.324 139.632 189.925 139.707 187.528C139.751 186.32 139.508 185.119 138.997 184.025C138.486 182.93 137.722 181.972 136.768 181.231C136.284 180.999 135.838 180.695 135.446 180.328C135.261 180.136 135.158 179.881 135.158 179.614C135.158 179.348 135.261 179.092 135.446 178.901C135.645 178.768 135.878 178.696 136.118 178.691C137.485 178.594 138.845 178.412 140.19 178.145C141.54 177.896 142.747 177.146 143.569 176.046C144.262 174.997 144.409 173.653 145.164 172.646C146.193 171.605 147.496 170.877 148.921 170.547C153.865 168.617 158.24 165.469 161.641 161.395C163.153 159.569 164.307 156.274 166.175 154.909C166.306 154.734 166.462 154.578 166.637 154.448V154.448Z" fill="url(#paint2_linear_99_277)"/>
<path d="M60.68 235.615C52.0097 241.877 42.8092 247.369 33.1832 252.029L31.8189 252.197H31.4411C31.0726 252.181 30.7122 252.085 30.3848 251.915C30.0574 251.745 29.7709 251.506 29.5452 251.215C29.3195 250.923 29.16 250.586 29.0778 250.226C28.9956 249.867 28.9926 249.494 29.0692 249.133C29.1577 248.37 29.2909 247.613 29.468 246.866C30.6854 241.157 31.9098 235.454 33.1412 229.759C33.2107 229.551 33.207 229.325 33.1306 229.119C33.0543 228.913 32.91 228.739 32.7214 228.626L10.745 211.561C10.6057 211.425 10.425 211.338 10.2313 211.315C10.0376 211.293 9.84178 211.335 9.67456 211.435C8.37318 212.107 7.02983 212.715 5.68648 213.324C0.963753 215.549 -3.59105 217.648 -8.2508 219.747C-8.55648 219.901 -8.8913 219.99 -9.23339 220.006C-9.57548 220.022 -9.91716 219.966 -10.2361 219.841C-10.555 219.716 -10.844 219.526 -11.0843 219.282C-11.3245 219.038 -11.5105 218.746 -11.6302 218.425L-11.903 217.795C-11.903 217.795 -11.903 217.564 -11.903 217.459C-11.6944 215.773 -11.4002 214.099 -11.0215 212.443C-8.67437 203.731 -5.79331 195.172 -2.39462 186.814C-0.805171 182.316 2.30561 178.515 6.40013 176.067C9.50656 174.311 12.9315 173.191 16.4753 172.772C19.2161 172.377 21.9773 172.139 24.7453 172.058C25.6059 172.058 26.4875 172.058 27.369 172.058C27.5515 172.033 27.7272 171.972 27.8858 171.878C28.0443 171.784 28.1826 171.66 28.2926 171.512C30.3916 168.448 32.3646 165.215 34.5895 162.277C37.6893 157.854 41.0245 153.601 44.5807 149.536C48.288 145.76 52.183 142.173 56.2511 138.789C60.3646 135.148 64.7894 131.875 69.4747 129.008C76.5099 124.965 84.0472 121.867 91.8919 119.793C93.4032 119.331 94.9354 118.933 96.4677 118.513L99.6162 118.177H100.183C100.918 118.264 101.612 118.559 102.185 119.028C102.758 119.496 103.185 120.119 103.415 120.822C103.425 120.912 103.425 121.004 103.415 121.095C103.558 121.787 103.656 122.488 103.709 123.194C104.017 126.878 103.947 130.585 103.499 134.255C103.041 140.887 101.736 147.433 99.6162 153.734C97.4912 159.595 94.9665 165.304 92.0598 170.82C89.7669 175.531 87.0553 180.027 83.9577 184.253C79.0179 190.723 73.7349 196.924 68.1314 202.829C67.9569 202.987 67.8336 203.193 67.7775 203.421C67.7214 203.649 67.735 203.889 67.8165 204.11C68.1943 205.747 68.5512 207.384 68.845 209.021C69.596 212.416 69.8785 215.898 69.6846 219.369C69.5598 222.593 68.68 225.742 67.1161 228.564C65.5521 231.386 63.3476 233.801 60.68 235.615V235.615Z" fill="white"/>
<path d="M24.0526 220.293L10.829 209.987C10.829 209.987 16.5172 192.46 24.7453 172.058C25.6059 172.058 26.4874 172.058 27.369 172.058C27.5515 172.033 27.7272 171.972 27.8857 171.878C28.0443 171.784 28.1826 171.66 28.2926 171.512C30.3915 168.448 32.3646 165.215 34.5895 162.277C37.6893 157.854 41.0245 153.601 44.5807 149.536C48.288 145.76 52.183 142.173 56.2511 138.789C60.3646 135.148 64.7894 131.875 69.4747 129.008C76.5099 124.965 84.0472 121.867 91.8919 119.793C93.4032 119.331 94.9354 118.933 96.4677 118.513L99.6162 118.177H100.183C100.918 118.264 101.612 118.559 102.185 119.028C102.758 119.496 103.185 120.119 103.415 120.822C103.425 120.912 103.425 121.004 103.415 121.095C95.9219 127.182 41.7891 171.911 24.0526 220.293Z" fill="url(#paint3_linear_99_277)"/>
<path d="M39.2284 181.23C40.9 180.35 42.4001 179.177 43.6572 177.767C46.239 181.188 47.1415 185.554 48.8837 189.458C49.2107 190.419 49.8451 191.245 50.6888 191.809C51.4445 192.126 52.2653 192.255 53.0817 192.187C54.6979 192.187 56.3141 192.187 57.9303 192.187C59.6532 192.195 61.3574 191.83 62.9259 191.117C63.7865 190.697 64.6261 189.857 64.3742 189.018C64.1223 188.178 62.9049 187.8 61.9184 187.8C60.6771 187.879 59.4309 187.766 58.2242 187.464C56.7036 186.806 55.4939 185.589 54.8448 184.064C54.1723 182.645 53.6245 181.17 53.2076 179.656C52.3448 177.084 51.2779 174.586 50.0171 172.184C49.3031 170.688 48.3295 169.331 47.1415 168.175C46.5477 167.602 45.8426 167.158 45.0699 166.869C44.2972 166.58 43.4735 166.453 42.6497 166.496C39.6691 166.81 37.7381 169.833 34.9674 170.966C33.6471 171.291 32.3609 171.741 31.1262 172.31C30.3437 172.881 29.6746 173.592 29.1532 174.409C27.5281 176.689 26.3396 179.251 25.6479 181.965C30.1241 183.293 34.9215 183.033 39.2284 181.23Z" fill="url(#paint4_linear_99_277)"/>
<path d="M43.6991 164.733C43.6991 164.733 47.8971 164.355 49.4503 165.887C51.8696 168.689 53.5507 172.052 54.3409 175.668C54.7188 177.054 55.1805 178.397 55.4954 179.866C55.6933 181.166 56.0749 182.431 56.6288 183.624C56.9697 184.29 57.5456 184.806 58.2451 185.072C58.7953 185.198 59.3614 185.24 59.9242 185.198C60.6267 185.191 61.3286 185.24 62.0232 185.345C62.1576 185.355 62.2874 185.398 62.4011 185.471C62.4801 185.575 62.5307 185.698 62.548 185.827C62.5891 186.189 62.5352 186.556 62.3917 186.891C62.2481 187.226 62.0199 187.518 61.7294 187.738C59.9533 188.589 57.9423 188.818 56.0201 188.388C53.7113 187.612 52.9766 183.33 52.137 181.336C50.9196 178.418 49.6182 175.563 48.2329 172.73C48.0864 172.354 47.8568 172.017 47.5612 171.743C47.2129 171.514 46.819 171.364 46.4068 171.302L41.3482 170.211C41.831 168.385 43.1743 166.538 43.6991 164.733Z" fill="#FFBBAB"/>
<path d="M66.2843 178.565C73.1354 178.565 78.6893 173.011 78.6893 166.16C78.6893 159.309 73.1354 153.755 66.2843 153.755C59.4332 153.755 53.8793 159.309 53.8793 166.16C53.8793 173.011 59.4332 178.565 66.2843 178.565Z" fill="#2F1073"/>
<path d="M66.2842 174.409C70.84 174.409 74.5332 170.716 74.5332 166.16C74.5332 161.604 70.84 157.911 66.2842 157.911C61.7283 157.911 58.0351 161.604 58.0351 166.16C58.0351 170.716 61.7283 174.409 66.2842 174.409Z" fill="#473F47"/>
<path d="M29.6989 172.793L10.0313 211.75L-8.62867 220.146C-8.62867 220.146 -12.2599 222.56 -11.9031 217.606C-11.5463 212.652 -1.9119 184.82 0.96371 180.958C3.83932 177.096 12.5921 170.043 29.6989 172.793Z" fill="#2F1073"/>
<path d="M67.6486 203.27L33.1412 229.759L28.1037 253.142C28.8582 254.141 29.9369 254.847 31.1547 255.138C32.3725 255.429 33.6536 255.287 34.7785 254.737C39.5012 253.163 63.9124 236.896 66.9559 233.223C69.9995 229.549 74.5753 219.138 67.6486 203.27Z" fill="#2F1073"/>
<path d="M86.8123 121.43L103.436 134.276C103.436 134.276 104.297 120.968 103.436 118.177C102.576 115.385 86.8123 121.43 86.8123 121.43Z" fill="#2F1073"/>
<path d="M10.85 210.008L7.55453 215.864L29.6989 232.866L34.7994 228.5L10.85 210.008Z" fill="#2F1073"/>
<path opacity="0.36" d="M7.55461 215.843C7.55461 215.843 -56.3806 283.934 -14.4428 315.209C27.495 346.484 75.9606 325.872 75.9606 325.872C75.9606 325.872 6.69402 341.173 -3.40211 302.321C-9.30027 279.589 29.6989 232.866 29.6989 232.866L7.55461 215.843Z" fill="url(#paint5_linear_99_277)"/>
<path d="M143.149 276.42L158.724 285.886H119.179L134.753 275.811V267.604L132.15 264.518V254.737C106.669 245.921 107.277 191.264 107.277 191.264H170.625C170.625 191.264 170.625 191.474 170.625 191.914C171.003 197.917 173.123 243.927 149.257 253.96C148.317 254.365 147.349 254.702 146.361 254.968V263.364L144.262 266.072L143.149 267.478V276.42Z" fill="#2F1073"/>
<path d="M109.964 238.638C109.195 238.664 108.429 238.539 107.709 238.268C106.988 237.998 106.328 237.589 105.766 237.064C105.088 236.323 104.633 235.407 104.451 234.42C104.269 233.432 104.368 232.414 104.738 231.48L107.634 232.32C107.45 232.75 107.387 233.222 107.454 233.685C107.52 234.148 107.714 234.584 108.012 234.944C108.458 235.291 108.983 235.521 109.54 235.612C110.098 235.704 110.669 235.655 111.203 235.468C111.593 235.393 111.96 235.224 112.271 234.975C112.582 234.726 112.827 234.406 112.987 234.041C112.735 233.16 108.789 229.843 105.724 227.052C97.3283 219.705 86.8333 210.574 90.2547 203.228C90.727 202.072 91.4687 201.047 92.418 200.236C93.3674 199.425 94.4968 198.854 95.712 198.568C102.429 197.015 111.329 204.236 111.706 204.55L109.796 206.88C107.55 205.033 100.75 200.583 96.3837 201.507C95.6167 201.695 94.9067 202.067 94.3145 202.59C93.7224 203.112 93.2656 203.771 92.9833 204.508C90.5065 209.798 100.855 218.802 107.676 224.764C113.763 230.074 116.429 232.509 115.904 234.755C115.633 235.652 115.129 236.46 114.443 237.098C113.757 237.736 112.914 238.181 112 238.386C111.334 238.553 110.651 238.638 109.964 238.638Z" fill="#2F1073"/>
<path d="M169.911 238.638C169.237 238.64 168.566 238.548 167.917 238.365C166.999 238.163 166.152 237.72 165.462 237.082C164.772 236.444 164.265 235.633 163.992 234.734C163.467 232.488 166.091 230.053 172.22 224.742C179.063 218.781 189.411 209.777 186.913 204.487C186.642 203.804 186.21 203.196 185.655 202.714C185.1 202.231 184.437 201.89 183.723 201.717C178.958 200.667 171.129 205.915 168.589 208.014L166.784 205.663C167.225 205.327 177.279 197.267 184.499 198.799C185.667 199.063 186.755 199.602 187.672 200.373C188.589 201.143 189.307 202.122 189.768 203.228C193.21 210.574 182.715 219.705 174.298 227.051C171.171 229.78 167.288 233.159 167.036 234.251C167.204 234.776 168.064 235.258 168.82 235.468C169.349 235.661 169.918 235.713 170.473 235.621C171.028 235.529 171.551 235.296 171.989 234.944C172.267 234.575 172.439 234.139 172.487 233.68C172.535 233.222 172.457 232.759 172.262 232.341L175.18 231.501C175.549 232.436 175.646 233.456 175.461 234.444C175.275 235.432 174.814 236.347 174.13 237.085C173.565 237.61 172.9 238.017 172.176 238.284C171.452 238.55 170.682 238.671 169.911 238.638Z" fill="#2F1073"/>
<path opacity="0.28" d="M149.299 253.981C148.359 254.386 147.391 254.723 146.403 254.989V255.199H132.15V254.737C106.669 245.921 107.277 191.264 107.277 191.264H122.81C122.81 191.264 115.925 227.471 139.077 249.406C144.01 254.107 145.794 252.932 149.299 253.981Z" fill="white"/>
<path d="M157.779 255.178C156.819 255.319 155.843 255.319 154.883 255.178H157.779Z" fill="#2F1073"/>
<path opacity="0.28" d="M136.81 255.199V264.329L139.077 267.373V275.832L132.948 285.928H121.152L136.432 276.399V267.562L133.41 263.868V254.674L136.81 255.199Z" fill="white"/>
<path d="M132.15 255.22V254.758C106.669 245.942 107.277 191.285 107.277 191.285H111.79C111.79 191.285 109.02 239.414 133.41 254.674L134.249 255.22H132.15Z" fill="url(#paint6_linear_99_277)"/>
<path d="M146.403 254.989V263.385L144.304 266.093C139.854 264.56 139.161 261.286 146.403 254.989Z" fill="#2F1073"/>
<path d="M149.299 253.981C148.359 254.386 147.391 254.723 146.403 254.989C169.995 234.524 157.779 191.285 157.779 191.285L170.667 191.935C170.982 197.938 173.081 243.948 149.299 253.981Z" fill="url(#paint7_linear_99_277)"/>
<path d="M31.9448 135.913L33.4141 132.912C34.7801 129.944 36.3878 127.094 38.2208 124.39C42.02 119.163 43.993 112.845 47.2674 107.262C47.4822 106.959 47.6126 106.604 47.6453 106.234C47.6453 105.415 46.6797 104.953 45.8611 104.743C44.7861 104.385 43.6378 104.306 42.5237 104.512C41.9686 104.624 41.4573 104.893 41.0514 105.287C40.6455 105.682 40.3623 106.186 40.2358 106.737C40.2221 107.377 40.2713 108.017 40.3828 108.647C40.3178 110.434 39.7019 112.157 38.6196 113.58L30.3496 126.972C29.2105 128.472 28.4866 130.245 28.2506 132.114C28.2988 133.088 28.7005 134.012 29.3805 134.711C30.0606 135.41 30.9723 135.838 31.9448 135.913V135.913Z" fill="#FFBBAB"/>
<path d="M31.9449 135.913C32.615 134.892 32.8633 133.651 32.6376 132.45C32.3965 130.871 32.3965 129.264 32.6376 127.685C33.137 126.168 33.224 124.545 32.8894 122.984C32.8894 122.984 32.8895 122.837 32.7635 122.795C32.7132 122.763 32.655 122.746 32.5956 122.746C32.5362 122.746 32.4779 122.763 32.4277 122.795C31.9155 123.103 31.5345 123.588 31.3572 124.159C30.4756 126.258 27.7889 129.805 28.1667 132.093C28.2119 133.085 28.6233 134.024 29.3212 134.73C30.0191 135.435 30.954 135.857 31.9449 135.913V135.913Z" fill="url(#paint8_linear_99_277)"/>
<path d="M25.0811 137.278L29.405 131.799L34.5475 136.501L29.6989 140.867L25.0811 137.278Z" fill="#2F1073"/>
<path d="M25.0811 137.278L29.405 131.799L34.5475 136.501L29.6989 140.867L25.0811 137.278Z" fill="url(#paint9_linear_99_277)"/>
<path d="M36.1428 144.037L38.1368 144.729C38.8295 144.96 40.2358 145.884 40.8865 145.254C41.5372 144.624 40.8865 142.714 40.8865 142.022C40.5555 139.537 39.9574 137.095 39.1024 134.738C38.7847 134.175 38.5887 133.551 38.5273 132.908C38.4658 132.264 38.5402 131.615 38.7456 131.002C38.926 130.681 39.1879 130.413 39.5047 130.225C39.8216 130.037 40.1823 129.936 40.5507 129.931C40.9142 129.937 41.2708 130.032 41.5891 130.208C41.9075 130.384 42.1779 130.635 42.3768 130.939C42.6613 131.612 42.8656 132.317 42.9855 133.038C43.2088 133.508 43.296 134.032 43.2374 134.549C43.1216 134.779 43.0234 135.018 42.9435 135.263C42.9291 135.537 42.9794 135.81 43.0905 136.06L45.7142 142.966C46.4411 144.442 46.7185 146.099 46.5118 147.731C46.1475 148.804 45.4305 149.722 44.4776 150.336C43.5247 150.95 42.3921 151.223 41.2643 151.11C38.7618 150.862 36.3529 150.028 34.2327 148.675C34.0018 148.549 33.729 148.319 33.8129 148.067C33.8765 147.957 33.9716 147.869 34.0858 147.815C34.7646 147.423 35.3346 146.867 35.744 146.199C35.9724 145.893 36.1272 145.539 36.1964 145.164C36.2656 144.789 36.2472 144.403 36.1428 144.037V144.037Z" fill="#FFBBAB"/>
<path d="M30.2236 132.807C30.1736 133.094 30.0341 133.359 29.8248 133.562C29.5016 133.765 29.1345 133.887 28.7544 133.919C28.3633 133.963 27.9923 134.116 27.6839 134.36C27.6361 134.447 27.611 134.544 27.611 134.643C27.611 134.743 27.6361 134.84 27.6839 134.927L28.2506 137.341C28.313 137.517 28.313 137.71 28.2506 137.886C28.1387 138.095 27.9508 138.253 27.7259 138.327C26.8863 138.726 25.8158 139.083 25.0811 138.516C24.7112 138.183 24.4544 137.743 24.3465 137.257C23.2656 134.577 22.614 131.743 22.4154 128.861C22.3365 127.992 22.4456 127.117 22.7354 126.295C23.0252 125.473 23.4888 124.723 24.0946 124.096C25.274 123.139 26.78 122.68 28.2926 122.816C28.6314 122.832 28.9611 122.931 29.2535 123.102C29.546 123.274 29.7924 123.514 29.9718 123.802C30.2027 124.222 29.9718 124.663 30.1187 125.124C30.1848 125.798 30.3041 126.464 30.4755 127.119C30.5616 127.433 30.6667 127.741 30.7904 128.042C30.9314 128.29 31.0306 128.56 31.0842 128.84C31.086 129.355 30.9712 129.865 30.7484 130.33C30.5381 130.9 30.3903 131.491 30.3076 132.093C30.3496 132.387 30.3496 132.597 30.2236 132.807Z" fill="#FFBBAB"/>
<path d="M30.8744 122.543C30.7903 123.077 30.5759 123.583 30.2501 124.015C29.9243 124.447 29.4971 124.792 29.0063 125.02C26.7394 126.09 23.507 125.943 24.3676 129.218C24.8629 130.496 25.0562 131.872 24.9324 133.237C24.8086 134.602 24.3711 135.92 23.6539 137.089C23.1292 137.866 22.4785 138.537 22.0167 139.356C21.2611 140.615 21.0302 142.147 20.2116 143.365C18.5744 145.779 15.258 146.282 12.3614 146.282C11.2533 146.259 10.1524 146.466 9.12891 146.891C6.75706 148.067 5.68657 151.551 3.06284 151.677C0.439104 151.803 -0.463463 148.381 -1.93275 146.702C-2.93644 145.692 -3.61168 144.402 -3.87009 143.001C-4.1285 141.6 -3.95805 140.154 -3.38105 138.852C-0.673359 133.311 8.16338 133.647 11.5008 128.357C13.5578 125.293 13.5578 121.095 17.1261 119.122C19.0871 118.209 21.2403 117.785 23.4009 117.888C25.5616 117.99 27.6651 118.615 29.5311 119.709C30.0235 119.981 30.418 120.401 30.6591 120.91C30.9001 121.418 30.9754 121.989 30.8744 122.543V122.543Z" fill="#473F47"/>
<path d="M34.7574 161.92C35.0123 162.127 35.3044 162.284 35.618 162.382C36.7169 162.652 37.8582 162.701 38.9764 162.529C40.5915 162.445 42.2099 162.445 43.8251 162.529C44.2174 162.509 44.6063 162.611 44.9375 162.823C45.4833 163.284 45.3153 164.145 45.0845 164.817C44.0784 167.872 42.9083 170.871 41.5792 173.8C41.1201 175.081 40.3221 176.212 39.2703 177.075C38.4395 177.59 37.51 177.926 36.5416 178.061C34.5951 178.46 32.625 178.734 30.6434 178.88C28.714 179.161 26.7442 178.9 24.9552 178.124C23.0443 176.972 21.6359 175.144 21.0091 173.003C20.2053 170.939 20.0086 168.688 20.4423 166.517C20.9671 164.208 22.0166 163.536 21.3659 161.059C20.5044 157.987 19.9006 154.849 19.5608 151.677C19.2879 148.798 19.5585 145.892 20.3584 143.113C20.6761 141.826 21.216 140.604 21.9536 139.503C22.7069 138.421 23.8123 137.635 25.0811 137.278C25.7102 137.116 26.3708 137.122 26.9969 137.295C27.623 137.468 28.1928 137.802 28.6494 138.264C31.1052 140.93 34.4636 141.077 37.2552 143.365C37.4185 143.47 37.5436 143.624 37.6121 143.806C37.6848 143.995 37.6848 144.204 37.6121 144.393L35.7859 148.78C35.6059 149.252 35.3735 149.703 35.0933 150.124C34.8414 150.48 34.5266 150.774 34.2957 151.131C33.6618 152.204 33.3418 153.433 33.3721 154.678C33.3511 156.777 32.8474 160.43 34.7574 161.92Z" fill="#2F1073"/>
<path d="M32.0917 164.732C31.7598 164.895 31.391 164.967 31.0224 164.941C30.6539 164.915 30.2987 164.793 29.9927 164.585C28.5234 163.494 29.6568 162.738 29.9927 161.605C30.4423 160.037 30.5637 158.394 30.3495 156.777C30.1186 153.65 29.8667 150.48 29.6358 147.374C29.7618 148.15 33.456 149.242 34.9043 150.228C34.6524 150.585 34.3376 150.879 34.1067 151.236C32.4695 153.629 33.3301 158.414 33.372 161.122C33.477 162.424 33.3091 164.061 32.0917 164.732Z" fill="url(#paint10_linear_99_277)"/>
<path d="M49.1145 124.348C49.7395 126.743 49.7395 129.258 49.1145 131.653C49.0024 131.766 48.866 131.852 48.7157 131.904C48.6001 131.944 48.4745 131.944 48.3589 131.904C47.4143 131.715 42.0619 128.21 35.765 130.414C35.4463 130.533 35.1052 130.581 34.7661 130.553C34.427 130.525 34.0982 130.422 33.8034 130.252C33.5086 130.082 33.255 129.849 33.0607 129.57C32.8664 129.291 32.7362 128.972 32.6795 128.636C32.6228 128.301 32.641 127.957 32.7327 127.629C32.8244 127.302 32.9873 126.998 33.21 126.741C33.4326 126.484 33.7093 126.279 34.0204 126.141C34.3315 126.003 34.6692 125.935 35.0093 125.943C35.0093 125.943 43.2583 123.194 45.0425 118.303C45.2734 117.568 45.7352 117.295 46.2599 117.379C46.5901 117.445 46.8996 117.589 47.1625 117.799C48.2148 119.842 48.8768 122.063 49.1145 124.348Z" fill="#2F1073"/>
<path d="M49.1146 124.348C49.7396 126.743 49.7396 129.258 49.1146 131.653C49.0846 131.716 49.0406 131.771 48.9861 131.815C48.9316 131.858 48.8678 131.889 48.7997 131.904V131.904C47.9601 131.904 46.7007 128.756 46.113 124.873C45.5253 120.99 45.5673 117.946 46.26 117.379H46.4279C46.6588 117.379 46.8897 117.526 47.1625 117.883C48.205 119.9 48.8667 122.091 49.1146 124.348V124.348Z" fill="url(#paint11_linear_99_277)"/>
<path d="M61.3517 184.862C61.0665 184.945 60.8216 185.13 60.663 185.381C60.5045 185.632 60.4434 185.933 60.4911 186.226C60.4911 186.562 60.89 186.898 60.743 187.213C60.6921 187.299 60.6221 187.372 60.5384 187.426C60.4547 187.481 60.3595 187.516 60.2603 187.528C58.2915 188.13 56.1701 187.988 54.2991 187.129C54.2533 187.294 54.2524 187.469 54.2967 187.635C54.341 187.801 54.4288 187.952 54.551 188.073C54.8384 188.606 55.2669 189.049 55.7894 189.354C56.1379 189.488 56.5075 189.559 56.8809 189.564C59.8105 189.525 62.6532 188.563 65.004 186.814C65.228 186.673 65.4267 186.496 65.5917 186.289C65.6624 186.176 65.6999 186.045 65.6999 185.911C65.6999 185.778 65.6624 185.647 65.5917 185.533C65.4657 185.219 65.0879 185.114 64.7521 185.051C64.1677 184.964 63.5792 184.908 62.9889 184.883C62.4503 184.765 61.8932 184.758 61.3517 184.862V184.862Z" fill="#2F1073"/>
<path d="M295.116 190.38C298.33 190.38 300.205 188.952 302.463 186.063L309.006 177.558H318.649C330.357 177.558 337.513 171.559 337.513 161.942V136.615C337.513 126.999 330.357 121 318.649 121H270.78C259.11 121 251.955 126.967 251.955 136.615V161.942C251.955 171.591 259.11 177.558 270.78 177.558H281.15L287.77 186.095C289.951 188.92 291.902 190.38 295.116 190.38Z" fill="white"/>
<path d="M266.476 158V141.2H269.548V148.184H277.084V141.2H280.156V158H277.084V150.68H269.548V158H266.476ZM289.133 158.288C287.933 158.288 286.869 158.032 285.941 157.52C285.013 157.008 284.285 156.288 283.757 155.36C283.229 154.432 282.965 153.36 282.965 152.144C282.965 150.912 283.221 149.816 283.733 148.856C284.261 147.896 284.981 147.152 285.893 146.624C286.821 146.08 287.909 145.808 289.157 145.808C290.325 145.808 291.357 146.064 292.253 146.576C293.149 147.088 293.845 147.792 294.341 148.688C294.853 149.568 295.109 150.552 295.109 151.64C295.109 151.816 295.101 152 295.085 152.192C295.085 152.384 295.077 152.584 295.061 152.792H286.013C286.077 153.72 286.397 154.448 286.973 154.976C287.565 155.504 288.277 155.768 289.109 155.768C289.733 155.768 290.253 155.632 290.669 155.36C291.101 155.072 291.421 154.704 291.629 154.256H294.749C294.525 155.008 294.149 155.696 293.621 156.32C293.109 156.928 292.469 157.408 291.701 157.76C290.949 158.112 290.093 158.288 289.133 158.288ZM289.157 148.304C288.405 148.304 287.741 148.52 287.165 148.952C286.589 149.368 286.221 150.008 286.061 150.872H291.989C291.941 150.088 291.653 149.464 291.125 149C290.597 148.536 289.941 148.304 289.157 148.304ZM297.693 158V140.72H300.765V158H297.693ZM303.904 158V140.72H306.976V158H303.904ZM315.827 158.288C314.675 158.288 313.635 158.024 312.707 157.496C311.795 156.968 311.067 156.24 310.523 155.312C309.995 154.368 309.731 153.28 309.731 152.048C309.731 150.816 310.003 149.736 310.547 148.808C311.091 147.864 311.819 147.128 312.731 146.6C313.659 146.072 314.699 145.808 315.851 145.808C316.987 145.808 318.011 146.072 318.923 146.6C319.851 147.128 320.579 147.864 321.107 148.808C321.651 149.736 321.923 150.816 321.923 152.048C321.923 153.28 321.651 154.368 321.107 155.312C320.579 156.24 319.851 156.968 318.923 157.496C317.995 158.024 316.963 158.288 315.827 158.288ZM315.827 155.624C316.627 155.624 317.323 155.328 317.915 154.736C318.507 154.128 318.803 153.232 318.803 152.048C318.803 150.864 318.507 149.976 317.915 149.384C317.323 148.776 316.635 148.472 315.851 148.472C315.035 148.472 314.331 148.776 313.739 149.384C313.163 149.976 312.875 150.864 312.875 152.048C312.875 153.232 313.163 154.128 313.739 154.736C314.331 155.328 315.027 155.624 315.827 155.624Z" fill="#4718AD"/>
<path d="M282.851 232.052C281.267 232.052 279.883 231.692 278.699 230.972C277.515 230.252 276.595 229.244 275.939 227.948C275.283 226.652 274.955 225.14 274.955 223.412C274.955 221.7 275.291 220.188 275.963 218.876C276.635 217.564 277.587 216.54 278.819 215.804C280.067 215.052 281.539 214.676 283.235 214.676C285.155 214.676 286.755 215.14 288.035 216.068C289.315 216.996 290.147 218.276 290.531 219.908H287.651C287.395 219.012 286.891 218.308 286.139 217.796C285.387 217.284 284.419 217.028 283.235 217.028C281.475 217.028 280.091 217.596 279.083 218.732C278.075 219.868 277.571 221.436 277.571 223.436C277.571 225.436 278.067 226.996 279.059 228.116C280.051 229.236 281.371 229.796 283.019 229.796C284.683 229.796 285.931 229.324 286.763 228.38C287.611 227.436 288.107 226.18 288.251 224.612H283.691V222.644H290.819V231.764H288.491L288.275 229.292C287.715 230.172 287.011 230.852 286.163 231.332C285.315 231.812 284.211 232.052 282.851 232.052ZM299.378 232.052C298.21 232.052 297.17 231.796 296.258 231.284C295.362 230.756 294.658 230.028 294.146 229.1C293.634 228.172 293.378 227.092 293.378 225.86C293.378 224.612 293.626 223.516 294.122 222.572C294.634 221.628 295.338 220.892 296.234 220.364C297.146 219.836 298.202 219.572 299.402 219.572C300.57 219.572 301.586 219.836 302.45 220.364C303.314 220.876 303.986 221.564 304.466 222.428C304.946 223.292 305.186 224.244 305.186 225.284C305.186 225.444 305.178 225.62 305.162 225.812C305.162 225.988 305.154 226.188 305.138 226.412H295.874C295.954 227.564 296.33 228.444 297.002 229.052C297.69 229.644 298.482 229.94 299.378 229.94C300.098 229.94 300.698 229.78 301.178 229.46C301.674 229.124 302.042 228.676 302.282 228.116H304.826C304.506 229.236 303.866 230.172 302.906 230.924C301.962 231.676 300.786 232.052 299.378 232.052ZM299.378 221.66C298.53 221.66 297.778 221.916 297.122 222.428C296.466 222.924 296.066 223.676 295.922 224.684H302.642C302.594 223.756 302.266 223.02 301.658 222.476C301.05 221.932 300.29 221.66 299.378 221.66ZM312.513 231.764C311.345 231.764 310.417 231.484 309.729 230.924C309.041 230.348 308.697 229.332 308.697 227.876V221.996H306.657V219.86H308.697L309.009 216.836H311.241V219.86H314.601V221.996H311.241V227.876C311.241 228.532 311.377 228.988 311.649 229.244C311.937 229.484 312.425 229.604 313.113 229.604H314.481V231.764H312.513ZM256.161 266.052C254.929 266.052 253.849 265.836 252.921 265.404C251.993 264.972 251.265 264.356 250.737 263.556C250.225 262.756 249.961 261.804 249.945 260.7H252.633C252.649 261.596 252.961 262.356 253.569 262.98C254.177 263.604 255.033 263.916 256.137 263.916C257.113 263.916 257.873 263.684 258.417 263.22C258.977 262.74 259.257 262.132 259.257 261.396C259.257 260.804 259.121 260.324 258.849 259.956C258.593 259.588 258.233 259.284 257.769 259.044C257.321 258.804 256.801 258.588 256.209 258.396C255.617 258.204 254.993 257.996 254.337 257.772C253.041 257.34 252.065 256.78 251.409 256.092C250.769 255.404 250.449 254.5 250.449 253.38C250.433 252.436 250.649 251.612 251.097 250.908C251.561 250.204 252.201 249.66 253.017 249.276C253.849 248.876 254.817 248.676 255.921 248.676C257.009 248.676 257.961 248.876 258.777 249.276C259.609 249.676 260.257 250.236 260.721 250.956C261.185 251.66 261.425 252.484 261.441 253.428H258.753C258.753 252.996 258.641 252.588 258.417 252.204C258.193 251.804 257.865 251.476 257.433 251.22C257.001 250.964 256.473 250.836 255.849 250.836C255.049 250.82 254.385 251.02 253.857 251.436C253.345 251.852 253.089 252.428 253.089 253.164C253.089 253.82 253.281 254.324 253.665 254.676C254.049 255.028 254.577 255.324 255.249 255.564C255.921 255.788 256.689 256.052 257.553 256.356C258.385 256.628 259.129 256.956 259.785 257.34C260.441 257.724 260.961 258.228 261.345 258.852C261.745 259.476 261.945 260.268 261.945 261.228C261.945 262.076 261.729 262.868 261.297 263.604C260.865 264.324 260.217 264.916 259.353 265.38C258.489 265.828 257.425 266.052 256.161 266.052ZM269.623 265.764C268.455 265.764 267.527 265.484 266.839 264.924C266.151 264.348 265.807 263.332 265.807 261.876V255.996H263.767V253.86H265.807L266.119 250.836H268.351V253.86H271.711V255.996H268.351V261.876C268.351 262.532 268.487 262.988 268.759 263.244C269.047 263.484 269.535 263.604 270.223 263.604H271.591V265.764H269.623ZM278.366 266.052C277.358 266.052 276.526 265.884 275.87 265.548C275.214 265.212 274.726 264.772 274.406 264.228C274.086 263.668 273.926 263.06 273.926 262.404C273.926 261.252 274.374 260.34 275.27 259.668C276.166 258.996 277.446 258.66 279.11 258.66H282.23V258.444C282.23 257.516 281.974 256.82 281.462 256.356C280.966 255.892 280.318 255.66 279.518 255.66C278.814 255.66 278.198 255.836 277.67 256.188C277.158 256.524 276.846 257.028 276.734 257.7H274.19C274.27 256.836 274.558 256.1 275.054 255.492C275.566 254.868 276.206 254.396 276.974 254.076C277.758 253.74 278.614 253.572 279.542 253.572C281.206 253.572 282.494 254.012 283.406 254.892C284.318 255.756 284.774 256.94 284.774 258.444V265.764H282.566L282.35 263.724C282.014 264.38 281.526 264.932 280.886 265.38C280.246 265.828 279.406 266.052 278.366 266.052ZM278.87 263.988C279.558 263.988 280.134 263.828 280.598 263.508C281.078 263.172 281.446 262.732 281.702 262.188C281.974 261.644 282.142 261.044 282.206 260.388H279.374C278.366 260.388 277.646 260.564 277.214 260.916C276.798 261.268 276.59 261.708 276.59 262.236C276.59 262.78 276.79 263.212 277.19 263.532C277.606 263.836 278.166 263.988 278.87 263.988ZM287.74 265.764V253.86H290.02L290.236 256.116C290.652 255.332 291.228 254.716 291.964 254.268C292.716 253.804 293.62 253.572 294.676 253.572V256.236H293.98C293.276 256.236 292.644 256.356 292.084 256.596C291.54 256.82 291.1 257.212 290.764 257.772C290.444 258.316 290.284 259.076 290.284 260.052V265.764H287.74ZM301.849 265.764C300.681 265.764 299.753 265.484 299.065 264.924C298.377 264.348 298.033 263.332 298.033 261.876V255.996H295.993V253.86H298.033L298.345 250.836H300.577V253.86H303.937V255.996H300.577V261.876C300.577 262.532 300.713 262.988 300.985 263.244C301.273 263.484 301.761 263.604 302.449 263.604H303.817V265.764H301.849ZM311.824 266.052C310.656 266.052 309.616 265.796 308.704 265.284C307.808 264.756 307.104 264.028 306.592 263.1C306.08 262.172 305.824 261.092 305.824 259.86C305.824 258.612 306.072 257.516 306.568 256.572C307.08 255.628 307.784 254.892 308.68 254.364C309.592 253.836 310.648 253.572 311.848 253.572C313.016 253.572 314.032 253.836 314.896 254.364C315.76 254.876 316.432 255.564 316.912 256.428C317.392 257.292 317.632 258.244 317.632 259.284C317.632 259.444 317.624 259.62 317.608 259.812C317.608 259.988 317.6 260.188 317.584 260.412H308.32C308.4 261.564 308.776 262.444 309.448 263.052C310.136 263.644 310.928 263.94 311.824 263.94C312.544 263.94 313.144 263.78 313.624 263.46C314.12 263.124 314.488 262.676 314.728 262.116H317.272C316.952 263.236 316.312 264.172 315.352 264.924C314.408 265.676 313.232 266.052 311.824 266.052ZM311.824 255.66C310.976 255.66 310.224 255.916 309.568 256.428C308.912 256.924 308.512 257.676 308.368 258.684H315.088C315.04 257.756 314.712 257.02 314.104 256.476C313.496 255.932 312.736 255.66 311.824 255.66ZM325.695 266.052C324.543 266.052 323.527 265.78 322.647 265.236C321.767 264.692 321.079 263.948 320.583 263.004C320.087 262.06 319.839 260.988 319.839 259.788C319.839 258.588 320.087 257.524 320.583 256.596C321.079 255.652 321.767 254.916 322.647 254.388C323.543 253.844 324.567 253.572 325.719 253.572C326.663 253.572 327.487 253.756 328.191 254.124C328.911 254.492 329.471 255.012 329.871 255.684V248.484H332.415V265.764H330.135L329.871 263.916C329.487 264.476 328.959 264.972 328.287 265.404C327.615 265.836 326.751 266.052 325.695 266.052ZM326.151 263.844C327.239 263.844 328.127 263.468 328.815 262.716C329.519 261.964 329.871 260.996 329.871 259.812C329.871 258.612 329.519 257.644 328.815 256.908C328.127 256.156 327.239 255.78 326.151 255.78C325.063 255.78 324.167 256.156 323.463 256.908C322.759 257.644 322.407 258.612 322.407 259.812C322.407 260.596 322.567 261.292 322.887 261.9C323.207 262.508 323.647 262.988 324.207 263.34C324.783 263.676 325.431 263.844 326.151 263.844ZM336.151 260.796L335.863 248.964H338.599L338.311 260.796H336.151ZM337.303 265.908C336.807 265.908 336.399 265.756 336.079 265.452C335.775 265.132 335.623 264.756 335.623 264.324C335.623 263.876 335.775 263.5 336.079 263.196C336.399 262.876 336.807 262.716 337.303 262.716C337.767 262.716 338.151 262.876 338.455 263.196C338.775 263.5 338.935 263.876 338.935 264.324C338.935 264.756 338.775 265.132 338.455 265.452C338.151 265.756 337.767 265.908 337.303 265.908Z" fill="white"/>
</g>
<defs>
<linearGradient id="paint0_linear_99_277" x1="138.217" y1="216.787" x2="144.471" y2="141.727" gradientUnits="userSpaceOnUse">
<stop offset="0.01"/>
<stop offset="0.08" stop-opacity="0.69"/>
<stop offset="0.21" stop-opacity="0.32"/>
<stop offset="1" stop-opacity="0"/>
</linearGradient>
<linearGradient id="paint1_linear_99_277" x1="1155.45" y1="1654.03" x2="1517.14" y2="1110.29" gradientUnits="userSpaceOnUse">
<stop offset="0.01"/>
<stop offset="0.08" stop-opacity="0.69"/>
<stop offset="0.21" stop-opacity="0.32"/>
<stop offset="1" stop-opacity="0"/>
</linearGradient>
<linearGradient id="paint2_linear_99_277" x1="-2473.35" y1="13383.9" x2="-3447.75" y2="12643.2" gradientUnits="userSpaceOnUse">
<stop offset="0.01"/>
<stop offset="0.08" stop-opacity="0.69"/>
<stop offset="0.21" stop-opacity="0.32"/>
<stop offset="1" stop-opacity="0"/>
</linearGradient>
<linearGradient id="paint3_linear_99_277" x1="-34.3202" y1="150.103" x2="162.733" y2="189.291" gradientUnits="userSpaceOnUse">
<stop offset="0.01"/>
<stop offset="0.13" stop-opacity="0.69"/>
<stop offset="0.25" stop-opacity="0.32"/>
<stop offset="1" stop-opacity="0"/>
</linearGradient>
<linearGradient id="paint4_linear_99_277" x1="2758.28" y1="1438.72" x2="2660.23" y2="2641.26" gradientUnits="userSpaceOnUse">
<stop offset="0.01"/>
<stop offset="0.13" stop-opacity="0.69"/>
<stop offset="0.25" stop-opacity="0.32"/>
<stop offset="1" stop-opacity="0"/>
</linearGradient>
<linearGradient id="paint5_linear_99_277" x1="2633.87" y1="7744.9" x2="13009.1" y2="26356.8" gradientUnits="userSpaceOnUse">
<stop offset="0.01"/>
<stop offset="0.08" stop-opacity="0.69"/>
<stop offset="0.21" stop-opacity="0.32"/>
<stop offset="1" stop-opacity="0"/>
</linearGradient>
<linearGradient id="paint6_linear_99_277" x1="2014.83" y1="6182.01" x2="3828.23" y2="6043.68" gradientUnits="userSpaceOnUse">
<stop offset="0.01"/>
<stop offset="0.13" stop-opacity="0.69"/>
<stop offset="0.25" stop-opacity="0.32"/>
<stop offset="1" stop-opacity="0"/>
</linearGradient>
<linearGradient id="paint7_linear_99_277" x1="3886.1" y1="6057.81" x2="1925.34" y2="5952.51" gradientUnits="userSpaceOnUse">
<stop offset="0.01"/>
<stop offset="0.13" stop-opacity="0.69"/>
<stop offset="0.25" stop-opacity="0.32"/>
<stop offset="1" stop-opacity="0"/>
</linearGradient>
<linearGradient id="paint8_linear_99_277" x1="908.237" y1="-1635.57" x2="945.804" y2="-1646.69" gradientUnits="userSpaceOnUse">
<stop offset="0.01"/>
<stop offset="0.13" stop-opacity="0.69"/>
<stop offset="0.25" stop-opacity="0.32"/>
<stop offset="1" stop-opacity="0"/>
</linearGradient>
<linearGradient id="paint9_linear_99_277" x1="2575.98" y1="-1282.51" x2="2705.19" y2="-1323.49" gradientUnits="userSpaceOnUse">
<stop offset="0.01"/>
<stop offset="0.13" stop-opacity="0.69"/>
<stop offset="0.25" stop-opacity="0.32"/>
<stop offset="1" stop-opacity="0"/>
</linearGradient>
<linearGradient id="paint10_linear_99_277" x1="1041.64" y1="-2138.08" x2="1151.24" y2="-2148.55" gradientUnits="userSpaceOnUse">
<stop offset="0.01"/>
<stop offset="0.13" stop-opacity="0.69"/>
<stop offset="0.25" stop-opacity="0.32"/>
<stop offset="1" stop-opacity="0"/>
</linearGradient>
<linearGradient id="paint11_linear_99_277" x1="521.739" y1="-1837.51" x2="570.34" y2="-1841.61" gradientUnits="userSpaceOnUse">
<stop offset="0.01"/>
<stop offset="0.13" stop-opacity="0.69"/>
<stop offset="0.25" stop-opacity="0.32"/>
<stop offset="1" stop-opacity="0"/>
</linearGradient>
<clipPath id="clip0_99_277">
<rect width="375" height="812" fill="white" transform="translate(-2)"/>
</clipPath>
</defs>
</svg>
