<svg width="140" height="140" viewBox="0 0 140 140" fill="none" xmlns="http://www.w3.org/2000/svg">
<g clip-path="url(#clip0_126_579)">
<g filter="url(#filter0_d_126_579)">
<path d="M85.2211 27.5346C85.2211 27.5346 91.5332 24.4012 92.0889 21.1766C92.6446 17.9519 92.5853 18.444 92.3809 17.0283C92.1765 15.6127 92.8304 15.4131 93.6144 16.496C94.3985 17.579 93.5015 19.1681 94.1322 19.1172C94.763 19.0662 95.2424 18.1482 96.4657 16.4529C97.8707 14.5052 98.0602 14.1061 98.7045 14.6803C99.3488 15.2545 100.925 18.2875 98.8127 20.7931C96.7006 23.2987 96.2791 22.2417 94.4835 24.3111C92.6878 26.3805 92.2372 30.7317 90.5873 32.3733C88.9374 34.0148 86.3903 32.5903 85.6472 31.571C84.5043 30.0046 85.2211 27.5346 85.2211 27.5346V27.5346Z" fill="#FFD6D6" fill-opacity="0.5" shape-rendering="crispEdges"/>
</g>
<g filter="url(#filter1_d_126_579)">
<path d="M94.7154 33.5565C94.7154 33.5565 91.4326 39.7371 87.2099 40.7148C82.8059 41.3593 82.3755 42.5434 80.6039 44.0542C78.6333 45.455 73.4173 47.4668 67.8405 41.9989C62.4287 36.7054 61.8133 31.5277 59.8706 21.6143C63.1951 22.8593 64.6768 22.1998 64.6768 22.1998C65.6232 23.0018 67.1371 25.3199 71.0141 27.735C75.3753 30.4535 76.431 30.5345 80.0258 27.9681C80.621 27.5462 84.8161 24.3942 84.8161 24.3942L94.7154 33.5565Z" fill="#FF6D6D" fill-opacity="0.5" shape-rendering="crispEdges"/>
</g>
<g filter="url(#filter2_d_126_579)">
<path d="M23.1248 102.761L15.5841 104.194L24.9183 122.432C24.9183 122.432 26.2226 121.158 25.8961 118.37C25.5695 115.582 26.4805 108.962 28.3418 106.504L26.0596 102.761H23.1248Z" fill="#BFDDFF" fill-opacity="0.5" shape-rendering="crispEdges"/>
</g>
<g filter="url(#filter3_d_126_579)">
<path d="M66.558 102.761L60.1002 108.814L78.7686 119.326C78.5947 117.774 78.0002 116.308 77.0567 115.105C75.5072 113.194 72.5053 108.504 73.3881 105.707L70.698 102.044L66.558 102.761Z" fill="#BFDDFF" fill-opacity="0.5" shape-rendering="crispEdges"/>
</g>
<g filter="url(#filter4_d_126_579)">
<path d="M27.3197 108.476C27.3197 108.476 32.298 103.828 37.5562 99.1691C39.5671 97.3873 46.8678 91.3974 49.5116 88.4842C56.5479 80.7299 61.0934 73.4716 63.3681 63.7512C65.2315 55.7879 63.923 47.5562 63.923 47.5562L53.7767 44.3852C53.7767 44.3852 52.2382 44.2644 51.0154 46.0164C49.7926 47.7684 49.205 47.5118 47.5342 52.5808C46.0652 57.038 46.9379 62.0767 45.8781 65.7401C44.8183 69.4034 44.1979 68.8412 42.8122 72.9035C41.4264 76.9657 41.3704 78.1606 38.8434 79.9116C36.3163 81.6627 34.3994 82.5599 32.6221 85.4856C31.2995 87.664 30.1291 90.9592 27.7281 92.6738C25.0553 94.5823 22.7056 99.1778 22.4362 103.004L27.3197 108.476Z" fill="#80BBFF" fill-opacity="0.5" shape-rendering="crispEdges"/>
</g>
<g filter="url(#filter5_d_126_579)">
<path d="M46.9206 50.7477C46.2379 53.3789 45.1554 57.1779 48.0682 61.3543C49.7255 63.7308 55.1732 68.0866 58.4094 69.8488C61.0705 71.2974 68.0068 74.9307 69.4343 76.8701C71.4773 79.6442 70.4783 81.7571 68.6929 86.4343C67.5815 89.345 67.0897 92.0994 66.7696 96.1418C66.5527 98.8819 66.7961 100.621 66.3296 102.975L73.2416 106.504C73.2416 106.504 78.5621 94.187 80.1185 90.2906C83.7628 81.1665 87.8215 72.4818 82.0682 66.9943C78.8902 63.9629 76.7821 62.4726 72.3376 58.9579C67.4557 55.097 65.6188 53.97 65.0582 50.8311C64.2874 46.5149 66.6282 43.3971 66.6282 43.3971L50.9213 43.2604C50.9213 43.2604 48.3206 45.3522 46.9206 50.7477V50.7477Z" fill="#80BBFF" fill-opacity="0.5" shape-rendering="crispEdges"/>
</g>
<g filter="url(#filter6_d_126_579)">
<path d="M65.7961 18.1869C65.5608 19.4709 65.5429 20.7603 65.4501 21.9833C65.4501 21.9833 63.6377 23.0621 61.2821 20.4091L63.151 16.1668L65.7961 18.1869Z" fill="#FFD6D6" fill-opacity="0.5" shape-rendering="crispEdges"/>
</g>
<g filter="url(#filter7_d_126_579)">
<path d="M72.2811 10.9323C72.2873 10.9641 72.2907 10.9875 72.294 11.0014C72.2963 11.0056 72.2975 11.0104 72.2973 11.0152C72.3216 11.1426 72.3416 11.2711 72.3584 11.4057C72.5403 12.8543 73.6133 13.9783 73.6104 14.3769C73.6076 14.7755 72.8088 15.04 72.4273 15.0739C72.0458 15.1078 71.5763 16.9609 70.0204 18.0274C68.5599 19.0287 66.3764 18.8932 64.9374 18.108C64.3835 15.0064 64.4861 12.8199 67.5609 11.4401C70.9173 9.93277 71.1499 8.51251 71.1499 8.51251C71.7016 9.21366 72.0892 10.0427 72.2811 10.9323Z" fill="#FFD6D6" fill-opacity="0.5" shape-rendering="crispEdges"/>
</g>
<g filter="url(#filter8_d_126_579)">
<path d="M60.4984 6.18787C62.2473 6.18787 63.6651 4.8028 63.6651 3.09424C63.6651 1.38568 62.2473 0.000610352 60.4984 0.000610352C58.7494 0.000610352 57.3317 1.38568 57.3317 3.09424C57.3317 4.8028 58.7494 6.18787 60.4984 6.18787Z" fill="#4099FF" fill-opacity="0.5" shape-rendering="crispEdges"/>
</g>
<g filter="url(#filter9_d_126_579)">
<path d="M71.1396 12.0496C71.3454 12.2763 71.6231 12.4145 71.9194 12.4378C72.2156 12.4612 72.5096 12.3679 72.7448 12.176C72.9154 12.0362 73.0409 11.844 73.1042 11.6257C73.1518 11.4628 72.9002 11.3602 72.8519 11.5249C72.7872 11.7512 72.643 11.9427 72.4488 12.0597C72.2547 12.1768 72.0255 12.2106 71.8086 12.1542C71.6357 12.1153 71.4779 12.0224 71.3555 11.8875C71.2392 11.7616 71.022 11.9224 71.1396 12.0496V12.0496Z" fill="#BFDDFF" fill-opacity="0.5" shape-rendering="crispEdges"/>
</g>
<g filter="url(#filter10_d_126_579)">
<path d="M69.2048 48.6737C64.0065 50.5153 61.8498 51.1513 54.8278 51.0873C48.7363 51.0317 43.4028 48.4607 43.4028 48.4607C43.4028 48.4607 42.1619 43.2129 45.3781 39.0063C50.0217 34.2872 48.4318 32.4956 51.1264 28.928C52.6571 26.7325 53.8754 25.3304 55.905 23.5634C57.3107 22.3401 58.9941 20.8141 61.3014 20.3647C61.3014 20.3647 62.826 21.7274 65.4654 21.7911C64.6768 37.6237 69.2048 48.6737 69.2048 48.6737Z" fill="#FF6D6D" fill-opacity="0.5" shape-rendering="crispEdges"/>
</g>
<g filter="url(#filter11_d_126_579)">
<path d="M72.2976 11.0166C72.8751 6.16145 68.3053 4.90181 64.6106 4.80741C62.6779 4.75806 61.2702 5.31331 60.2874 6.11003C58.7541 6.29453 57.3298 5.30582 57.0037 3.83064C56.9687 3.68881 56.7468 3.75583 56.782 3.89718C57.1129 5.36616 58.4668 6.39641 60.0067 6.35263C59.3502 6.95985 58.8628 7.74524 58.5972 8.62407C58.3185 9.57918 57.6879 11.417 56.2006 12.7417C54.7133 14.0665 54.2729 16.5213 54.2729 16.5213C59.1645 19.3707 66.1453 19.0244 66.1453 19.0244C67.2037 16.3572 65.6394 14.4746 67.0945 12.9216C66.8683 13.314 66.7417 13.7615 66.7269 14.2209C66.6851 15.8489 68.0606 17.4455 66.9155 18.9846C66.8278 19.102 66.9933 19.2607 67.119 19.093C67.6644 18.3599 67.7093 17.6162 67.523 16.7389C67.3864 16.0974 67.1168 15.4926 67.0258 14.8411C66.9555 14.3419 67.007 13.8319 67.1755 13.3598C67.3441 12.8876 67.6239 12.4689 67.9885 12.1435C70.9797 10.0795 71.1486 8.51248 71.1486 8.51248C71.7169 9.23691 72.1111 10.0961 72.2976 11.0166V11.0166Z" fill="#4099FF" fill-opacity="0.5" shape-rendering="crispEdges"/>
</g>
<g filter="url(#filter12_d_126_579)">
<path d="M45.575 41.9632C45.575 41.9632 47.3281 48.604 50.4728 49.6632C53.6176 50.7224 53.1332 50.5852 54.5895 50.6162C56.0458 50.6473 56.1358 51.3127 54.9155 51.8974C53.6952 52.4821 52.2509 51.3561 52.1956 51.9752C52.1402 52.5943 52.981 53.207 54.4767 54.6655C56.195 56.3411 56.564 56.5891 55.8784 57.1203C55.1927 57.6515 51.8801 58.6876 49.7217 56.2374C47.5634 53.7872 48.6949 53.5497 46.9206 51.4762C45.1463 49.4026 40.8521 48.2633 39.4826 46.3997C38.1131 44.5361 40.2063 42.6036 41.2238 42.229C42.2531 41.8501 45.575 41.9632 45.575 41.9632V41.9632Z" fill="#FFD6D6" fill-opacity="0.5" shape-rendering="crispEdges"/>
</g>
<g filter="url(#filter13_d_126_579)">
<path d="M37.4342 50.9207C37.4342 50.9207 32.6635 46.7173 32.8547 41.952C33.0442 37.2266 31.0831 36.0593 31.1888 33.9026C31.3576 30.4603 31.127 26.4605 37.3536 22.9851C44.3614 19.0737 48.1244 19.5747 60.1154 20.9413L63.9222 24.506C63.9855 24.506 60.8051 26.1851 55.3492 27.4509C51.0717 28.4431 46.8929 30.3236 45.8571 33.4989C44.7138 37.007 49.3541 41.9858 49.3541 41.9858L37.4342 50.9207Z" fill="#FF6D6D" fill-opacity="0.5" shape-rendering="crispEdges"/>
</g>
</g>
<g clip-path="url(#clip1_126_579)">
<path d="M4.68265 121.419H132.927V126.205H3.24988V122.931C3.24986 122.732 3.2869 122.536 3.3589 122.352C3.43089 122.169 3.53642 122.002 3.66947 121.862C3.80252 121.722 3.96048 121.61 4.13432 121.534C4.30816 121.459 4.49449 121.419 4.68265 121.419V121.419Z" fill="#BFDDFF" fill-opacity="0.5"/>
<path d="M115.325 59.7237L118.943 57.0765L126.024 126.233L122.406 128.88L115.325 59.7237Z" fill="#F7F9FA"/>
<path d="M11.1161 133.942H19.5159V140H11.1161V133.942Z" fill="#BFDDFF" fill-opacity="0.5"/>
<path d="M120.035 133.942H128.435V140H120.035V133.942Z" fill="#BFDDFF" fill-opacity="0.5"/>
<path d="M124.801 112.1C110.789 112.1 109.855 120.086 104.547 122.432C102.183 123.477 94.2806 123.947 94.2806 123.947H0V137.274H140V123.947C140 123.947 140 112.1 124.801 112.1V112.1Z" fill="#F2F8FF"/>
<path d="M123.676 130.292C126.429 130.292 128.661 128.119 128.661 125.439C128.661 122.758 126.429 120.585 123.676 120.585C120.923 120.585 118.691 122.758 118.691 125.439C118.691 128.119 120.923 130.292 123.676 130.292Z" fill="#FF9898" fill-opacity="0.5"/>
<path d="M123.676 127.528C124.861 127.528 125.822 126.593 125.822 125.439C125.822 124.285 124.861 123.35 123.676 123.35C122.491 123.35 121.53 124.285 121.53 125.439C121.53 126.593 122.491 127.528 123.676 127.528Z" fill="#F7F9FA"/>
<path d="M119.429 61.1865L130.478 54.3614L128.225 50.6112L102.965 66.2157V69.9659L120.297 69.6895L119.429 61.1865Z" fill="#F2F8FF"/>
<path d="M112.922 63.7115H94.3706C93.9718 63.7115 93.6484 64.0525 93.6484 64.4731V65.4773C93.6484 65.8979 93.9718 66.2389 94.3706 66.2389H112.922C113.321 66.2389 113.644 65.8979 113.644 65.4773V64.4731C113.644 64.0525 113.321 63.7115 112.922 63.7115Z" fill="#BFDDFF" fill-opacity="0.5"/>
</g>
<defs>
<filter id="filter0_d_126_579" x="60.9991" y="-3.56061" width="62.8773" height="66.6821" filterUnits="userSpaceOnUse" color-interpolation-filters="sRGB">
<feFlood flood-opacity="0" result="BackgroundImageFix"/>
<feColorMatrix in="SourceAlpha" type="matrix" values="0 0 0 0 0 0 0 0 0 0 0 0 0 0 0 0 0 0 127 0" result="hardAlpha"/>
<feOffset dy="6"/>
<feGaussianBlur stdDeviation="12"/>
<feComposite in2="hardAlpha" operator="out"/>
<feColorMatrix type="matrix" values="0 0 0 0 0 0 0 0 0 0 0 0 0 0 0 0 0 0 0.04 0"/>
<feBlend mode="normal" in2="BackgroundImageFix" result="effect1_dropShadow_126_579"/>
<feBlend mode="normal" in="SourceGraphic" in2="effect1_dropShadow_126_579" result="shape"/>
</filter>
<filter id="filter1_d_126_579" x="35.8706" y="3.61432" width="82.8448" height="71.988" filterUnits="userSpaceOnUse" color-interpolation-filters="sRGB">
<feFlood flood-opacity="0" result="BackgroundImageFix"/>
<feColorMatrix in="SourceAlpha" type="matrix" values="0 0 0 0 0 0 0 0 0 0 0 0 0 0 0 0 0 0 127 0" result="hardAlpha"/>
<feOffset dy="6"/>
<feGaussianBlur stdDeviation="12"/>
<feComposite in2="hardAlpha" operator="out"/>
<feColorMatrix type="matrix" values="0 0 0 0 0 0 0 0 0 0 0 0 0 0 0 0 0 0 0.04 0"/>
<feBlend mode="normal" in2="BackgroundImageFix" result="effect1_dropShadow_126_579"/>
<feBlend mode="normal" in="SourceGraphic" in2="effect1_dropShadow_126_579" result="shape"/>
</filter>
<filter id="filter2_d_126_579" x="-8.41589" y="84.761" width="60.7577" height="67.6708" filterUnits="userSpaceOnUse" color-interpolation-filters="sRGB">
<feFlood flood-opacity="0" result="BackgroundImageFix"/>
<feColorMatrix in="SourceAlpha" type="matrix" values="0 0 0 0 0 0 0 0 0 0 0 0 0 0 0 0 0 0 127 0" result="hardAlpha"/>
<feOffset dy="6"/>
<feGaussianBlur stdDeviation="12"/>
<feComposite in2="hardAlpha" operator="out"/>
<feColorMatrix type="matrix" values="0 0 0 0 0 0 0 0 0 0 0 0 0 0 0 0 0 0 0.04 0"/>
<feBlend mode="normal" in2="BackgroundImageFix" result="effect1_dropShadow_126_579"/>
<feBlend mode="normal" in="SourceGraphic" in2="effect1_dropShadow_126_579" result="shape"/>
</filter>
<filter id="filter3_d_126_579" x="36.1002" y="84.0441" width="66.6683" height="65.2817" filterUnits="userSpaceOnUse" color-interpolation-filters="sRGB">
<feFlood flood-opacity="0" result="BackgroundImageFix"/>
<feColorMatrix in="SourceAlpha" type="matrix" values="0 0 0 0 0 0 0 0 0 0 0 0 0 0 0 0 0 0 127 0" result="hardAlpha"/>
<feOffset dy="6"/>
<feGaussianBlur stdDeviation="12"/>
<feComposite in2="hardAlpha" operator="out"/>
<feColorMatrix type="matrix" values="0 0 0 0 0 0 0 0 0 0 0 0 0 0 0 0 0 0 0.04 0"/>
<feBlend mode="normal" in2="BackgroundImageFix" result="effect1_dropShadow_126_579"/>
<feBlend mode="normal" in="SourceGraphic" in2="effect1_dropShadow_126_579" result="shape"/>
</filter>
<filter id="filter4_d_126_579" x="-1.56384" y="26.3834" width="89.9332" height="112.092" filterUnits="userSpaceOnUse" color-interpolation-filters="sRGB">
<feFlood flood-opacity="0" result="BackgroundImageFix"/>
<feColorMatrix in="SourceAlpha" type="matrix" values="0 0 0 0 0 0 0 0 0 0 0 0 0 0 0 0 0 0 127 0" result="hardAlpha"/>
<feOffset dy="6"/>
<feGaussianBlur stdDeviation="12"/>
<feComposite in2="hardAlpha" operator="out"/>
<feColorMatrix type="matrix" values="0 0 0 0 0 0 0 0 0 0 0 0 0 0 0 0 0 0 0.04 0"/>
<feBlend mode="normal" in2="BackgroundImageFix" result="effect1_dropShadow_126_579"/>
<feBlend mode="normal" in="SourceGraphic" in2="effect1_dropShadow_126_579" result="shape"/>
</filter>
<filter id="filter5_d_126_579" x="22.146" y="25.2604" width="86.798" height="111.244" filterUnits="userSpaceOnUse" color-interpolation-filters="sRGB">
<feFlood flood-opacity="0" result="BackgroundImageFix"/>
<feColorMatrix in="SourceAlpha" type="matrix" values="0 0 0 0 0 0 0 0 0 0 0 0 0 0 0 0 0 0 127 0" result="hardAlpha"/>
<feOffset dy="6"/>
<feGaussianBlur stdDeviation="12"/>
<feComposite in2="hardAlpha" operator="out"/>
<feColorMatrix type="matrix" values="0 0 0 0 0 0 0 0 0 0 0 0 0 0 0 0 0 0 0.04 0"/>
<feBlend mode="normal" in2="BackgroundImageFix" result="effect1_dropShadow_126_579"/>
<feBlend mode="normal" in="SourceGraphic" in2="effect1_dropShadow_126_579" result="shape"/>
</filter>
<filter id="filter6_d_126_579" x="37.2821" y="-1.83319" width="52.5139" height="54.0335" filterUnits="userSpaceOnUse" color-interpolation-filters="sRGB">
<feFlood flood-opacity="0" result="BackgroundImageFix"/>
<feColorMatrix in="SourceAlpha" type="matrix" values="0 0 0 0 0 0 0 0 0 0 0 0 0 0 0 0 0 0 127 0" result="hardAlpha"/>
<feOffset dy="6"/>
<feGaussianBlur stdDeviation="12"/>
<feComposite in2="hardAlpha" operator="out"/>
<feColorMatrix type="matrix" values="0 0 0 0 0 0 0 0 0 0 0 0 0 0 0 0 0 0 0.04 0"/>
<feBlend mode="normal" in2="BackgroundImageFix" result="effect1_dropShadow_126_579"/>
<feBlend mode="normal" in="SourceGraphic" in2="effect1_dropShadow_126_579" result="shape"/>
</filter>
<filter id="filter7_d_126_579" x="40.6774" y="-9.48749" width="56.9331" height="58.2253" filterUnits="userSpaceOnUse" color-interpolation-filters="sRGB">
<feFlood flood-opacity="0" result="BackgroundImageFix"/>
<feColorMatrix in="SourceAlpha" type="matrix" values="0 0 0 0 0 0 0 0 0 0 0 0 0 0 0 0 0 0 127 0" result="hardAlpha"/>
<feOffset dy="6"/>
<feGaussianBlur stdDeviation="12"/>
<feComposite in2="hardAlpha" operator="out"/>
<feColorMatrix type="matrix" values="0 0 0 0 0 0 0 0 0 0 0 0 0 0 0 0 0 0 0.04 0"/>
<feBlend mode="normal" in2="BackgroundImageFix" result="effect1_dropShadow_126_579"/>
<feBlend mode="normal" in="SourceGraphic" in2="effect1_dropShadow_126_579" result="shape"/>
</filter>
<filter id="filter8_d_126_579" x="33.3317" y="-17.9994" width="54.3334" height="54.1873" filterUnits="userSpaceOnUse" color-interpolation-filters="sRGB">
<feFlood flood-opacity="0" result="BackgroundImageFix"/>
<feColorMatrix in="SourceAlpha" type="matrix" values="0 0 0 0 0 0 0 0 0 0 0 0 0 0 0 0 0 0 127 0" result="hardAlpha"/>
<feOffset dy="6"/>
<feGaussianBlur stdDeviation="12"/>
<feComposite in2="hardAlpha" operator="out"/>
<feColorMatrix type="matrix" values="0 0 0 0 0 0 0 0 0 0 0 0 0 0 0 0 0 0 0.04 0"/>
<feBlend mode="normal" in2="BackgroundImageFix" result="effect1_dropShadow_126_579"/>
<feBlend mode="normal" in="SourceGraphic" in2="effect1_dropShadow_126_579" result="shape"/>
</filter>
<filter id="filter9_d_126_579" x="47.1057" y="-6.55872" width="50.0044" height="49.0001" filterUnits="userSpaceOnUse" color-interpolation-filters="sRGB">
<feFlood flood-opacity="0" result="BackgroundImageFix"/>
<feColorMatrix in="SourceAlpha" type="matrix" values="0 0 0 0 0 0 0 0 0 0 0 0 0 0 0 0 0 0 127 0" result="hardAlpha"/>
<feOffset dy="6"/>
<feGaussianBlur stdDeviation="12"/>
<feComposite in2="hardAlpha" operator="out"/>
<feColorMatrix type="matrix" values="0 0 0 0 0 0 0 0 0 0 0 0 0 0 0 0 0 0 0.04 0"/>
<feBlend mode="normal" in2="BackgroundImageFix" result="effect1_dropShadow_126_579"/>
<feBlend mode="normal" in="SourceGraphic" in2="effect1_dropShadow_126_579" result="shape"/>
</filter>
<filter id="filter10_d_126_579" x="19.1674" y="2.36475" width="74.0375" height="78.7269" filterUnits="userSpaceOnUse" color-interpolation-filters="sRGB">
<feFlood flood-opacity="0" result="BackgroundImageFix"/>
<feColorMatrix in="SourceAlpha" type="matrix" values="0 0 0 0 0 0 0 0 0 0 0 0 0 0 0 0 0 0 127 0" result="hardAlpha"/>
<feOffset dy="6"/>
<feGaussianBlur stdDeviation="12"/>
<feComposite in2="hardAlpha" operator="out"/>
<feColorMatrix type="matrix" values="0 0 0 0 0 0 0 0 0 0 0 0 0 0 0 0 0 0 0.04 0"/>
<feBlend mode="normal" in2="BackgroundImageFix" result="effect1_dropShadow_126_579"/>
<feBlend mode="normal" in="SourceGraphic" in2="effect1_dropShadow_126_579" result="shape"/>
</filter>
<filter id="filter11_d_126_579" x="30.2729" y="-14.248" width="66.0743" height="63.4138" filterUnits="userSpaceOnUse" color-interpolation-filters="sRGB">
<feFlood flood-opacity="0" result="BackgroundImageFix"/>
<feColorMatrix in="SourceAlpha" type="matrix" values="0 0 0 0 0 0 0 0 0 0 0 0 0 0 0 0 0 0 127 0" result="hardAlpha"/>
<feOffset dy="6"/>
<feGaussianBlur stdDeviation="12"/>
<feComposite in2="hardAlpha" operator="out"/>
<feColorMatrix type="matrix" values="0 0 0 0 0 0 0 0 0 0 0 0 0 0 0 0 0 0 0.04 0"/>
<feBlend mode="normal" in2="BackgroundImageFix" result="effect1_dropShadow_126_579"/>
<feBlend mode="normal" in="SourceGraphic" in2="effect1_dropShadow_126_579" result="shape"/>
</filter>
<filter id="filter12_d_126_579" x="15.0319" y="23.9474" width="65.1714" height="63.8502" filterUnits="userSpaceOnUse" color-interpolation-filters="sRGB">
<feFlood flood-opacity="0" result="BackgroundImageFix"/>
<feColorMatrix in="SourceAlpha" type="matrix" values="0 0 0 0 0 0 0 0 0 0 0 0 0 0 0 0 0 0 127 0" result="hardAlpha"/>
<feOffset dy="6"/>
<feGaussianBlur stdDeviation="12"/>
<feComposite in2="hardAlpha" operator="out"/>
<feColorMatrix type="matrix" values="0 0 0 0 0 0 0 0 0 0 0 0 0 0 0 0 0 0 0.04 0"/>
<feBlend mode="normal" in2="BackgroundImageFix" result="effect1_dropShadow_126_579"/>
<feBlend mode="normal" in="SourceGraphic" in2="effect1_dropShadow_126_579" result="shape"/>
</filter>
<filter id="filter13_d_126_579" x="7.18469" y="1.94019" width="80.7384" height="78.9806" filterUnits="userSpaceOnUse" color-interpolation-filters="sRGB">
<feFlood flood-opacity="0" result="BackgroundImageFix"/>
<feColorMatrix in="SourceAlpha" type="matrix" values="0 0 0 0 0 0 0 0 0 0 0 0 0 0 0 0 0 0 127 0" result="hardAlpha"/>
<feOffset dy="6"/>
<feGaussianBlur stdDeviation="12"/>
<feComposite in2="hardAlpha" operator="out"/>
<feColorMatrix type="matrix" values="0 0 0 0 0 0 0 0 0 0 0 0 0 0 0 0 0 0 0.04 0"/>
<feBlend mode="normal" in2="BackgroundImageFix" result="effect1_dropShadow_126_579"/>
<feBlend mode="normal" in="SourceGraphic" in2="effect1_dropShadow_126_579" result="shape"/>
</filter>
<clipPath id="clip0_126_579">
<rect width="84.2927" height="122.432" fill="white" transform="translate(15.5841)"/>
</clipPath>
<clipPath id="clip1_126_579">
<rect width="140" height="89.3888" fill="white" transform="translate(0 50.6112)"/>
</clipPath>
</defs>
</svg>
