<svg width="98" height="123" viewBox="0 0 98 123" fill="none" xmlns="http://www.w3.org/2000/svg">
    <path d="M50.5812 25.2435L52.1268 38.6959L37.7506 39.5207V29.565L50.5812 25.2435Z" fill="#FFEDE5" fill-opacity="0.5" />
    <path d="M37.7506 36.1286C37.7506 36.1286 46.7384 41.0193 49.2791 25.685L37.7506 29.565V36.1286Z" fill="#E0855C" fill-opacity="0.5" />
    <path d="M35.5121 22.938C36.5476 22.5953 36.9287 20.6494 36.3633 18.5917C35.7978 16.5339 34.4999 15.1436 33.4644 15.4862C32.4288 15.8289 32.0477 17.7748 32.6132 19.8326C33.1787 21.8903 34.4765 23.2806 35.5121 22.938Z" fill="#E0855C" fill-opacity="0.5" />
    <path d="M33.9078 13.3943C33.9078 13.3943 34.1831 34.6068 42.578 35.2805C50.9729 35.9543 51.6398 18.8542 51.6928 13.3943C51.7457 7.93435 46.442 6.36607 41.6993 6.42415C36.9567 6.48224 34.1301 9.15412 33.9078 13.3943Z" fill="#FFEDE5" fill-opacity="0.5" />
    <path d="M51.3328 18.134C51.3328 18.134 49.1944 14.8813 49.2685 10.9664C49.2685 10.9664 42.0063 14.7883 37.1896 11.7679C37.1896 11.7679 34.3101 13.7312 34.1831 17.8668L33.1986 15.6131C33.1986 15.6131 32.6692 10.9199 32.9657 9.81628C33.1456 9.15412 33.5691 8.59651 34.1301 8.29447C34.1301 8.29447 31.6847 2.35823 37.6554 0C37.6554 0 37.6765 1.42888 40.0585 1.23139C42.4404 1.03391 53.4713 0.302041 52.5926 6.76104C52.582 6.74942 55.038 10.9664 51.3328 18.134Z" fill="#3B2645" fill-opacity="0.5" />
    <path d="M53.8229 18.7063C54.3423 16.6339 53.918 14.6988 52.8751 14.384C51.8322 14.0692 50.5656 15.494 50.0462 17.5664C49.5268 19.6387 49.9512 21.5739 50.9941 21.8887C52.037 22.2034 53.3035 20.7786 53.8229 18.7063Z" fill="#FFEDE5" fill-opacity="0.5" />
    <path d="M51.3329 19.5629C51.3223 19.5629 51.3011 19.5629 51.2905 19.5513C51.2376 19.528 51.2164 19.4583 51.2376 19.4003L52.1692 17.286C52.1904 17.2279 52.2539 17.2047 52.3068 17.2279C52.3598 17.2511 52.3809 17.3208 52.3598 17.3789L51.4282 19.4932C51.407 19.5397 51.3752 19.5629 51.3329 19.5629Z" fill="#472938" fill-opacity="0.5" />
    <path d="M42.2498 25.2668C41.7311 25.2668 40.7254 24.9647 40.4925 24.5C40.3337 24.1748 40.6513 22.3509 41.2653 19.2957C41.3711 18.7497 41.4664 18.3199 41.4982 18.1108C41.6252 17.344 41.2335 17.1349 41.2123 17.1349C41.1594 17.1117 41.1382 17.042 41.1594 16.9839C41.1806 16.9258 41.2441 16.9026 41.297 16.9258C41.3182 16.9375 41.8581 17.2046 41.6993 18.1572C41.6676 18.3663 41.5829 18.7962 41.4664 19.3538C41.1806 20.771 40.5137 24.0934 40.6724 24.3955C40.863 24.7788 42.0487 25.1274 42.398 25.0228C42.7474 24.9182 43.4355 24.3606 43.446 24.3606C43.4884 24.3258 43.5625 24.3374 43.5943 24.3839C43.626 24.4303 43.6154 24.5117 43.5731 24.5465C43.5413 24.5697 42.8426 25.1274 42.4615 25.2435C42.398 25.2551 42.3345 25.2668 42.2498 25.2668Z" fill="#472938" fill-opacity="0.5" />
    <path d="M42.4616 28.6821C41.5088 28.6821 40.7677 28.4265 40.7572 28.4265C40.7042 28.4033 40.6725 28.3452 40.6936 28.2755C40.7148 28.2174 40.7677 28.1826 40.8313 28.2058C40.863 28.2174 44.4624 29.4372 45.8174 26.3587C45.8386 26.3007 45.9021 26.2774 45.955 26.3007C46.008 26.3239 46.0291 26.3936 46.008 26.4517C45.1928 28.2755 43.6578 28.6821 42.4616 28.6821Z" fill="#472938" fill-opacity="0.5" />
    <path d="M46.389 17.4718C46.7278 17.4718 47.0031 17.7738 47.0031 18.1456V18.6451C47.0031 19.0168 46.7278 19.3189 46.389 19.3189C46.0503 19.3189 45.775 19.0168 45.775 18.6451V18.1456C45.775 17.7738 46.0397 17.4718 46.389 17.4718Z" fill="#472938" fill-opacity="0.5" />
    <path d="M38.1211 17.9365C38.4599 17.9017 38.7563 18.1689 38.7881 18.5406L38.8304 19.0401C38.8622 19.4119 38.6187 19.7371 38.2799 19.772C37.9412 19.8068 37.6448 19.5397 37.613 19.1679L37.5707 18.6684C37.5389 18.2967 37.7824 17.9714 38.1211 17.9365Z" fill="#472938" fill-opacity="0.5" />
    <path d="M48.4957 15.3227C47.7547 14.858 46.876 14.7883 46.0821 15.1252C44.7588 15.7061 44.3671 15.3111 44.2824 15.1136C44.1977 14.9161 45.0869 13.9519 46.8654 14.0332C48.0829 14.0797 48.4957 15.3227 48.4957 15.3227Z" fill="#472938" fill-opacity="0.5" />
    <path d="M35.5381 16.3914C36.1944 15.7989 37.0625 15.5782 37.8882 15.7641C39.2856 16.101 39.6032 15.6479 39.6562 15.4388C39.7091 15.2297 38.6928 14.4398 36.9461 14.8231C35.7604 15.1019 35.5381 16.3914 35.5381 16.3914Z" fill="#472938" fill-opacity="0.5" />
    <path d="M68.8108 45.515L61.8768 42.6805C43.7849 48.8955 35.9616 44.0397 32.934 40.6824C32.934 40.6824 21.956 42.3784 20.4951 43.7028C19.0342 45.0271 23.2052 85.4655 23.4169 94.3176C23.5545 99.9634 22.9088 108.165 22.4218 113.346C30.425 119.12 39.8044 122.43 50.1367 122.43C56.4143 122.43 62.6602 120.119 68.5144 116.25C67.5299 107.236 65.4762 88.4046 65.3915 85.6979C65.2856 82.1315 68.8108 45.515 68.8108 45.515Z" fill="#AB8DA8" fill-opacity="0.5" />
    <path d="M37.7507 39.5207L32.934 40.6824C35.9616 44.0397 43.7849 48.8956 61.8874 42.6921L52.1269 38.6959L37.7507 39.5207Z" fill="#FFEDE5" fill-opacity="0.5" />
    <path d="M65.8361 78.4606C65.8361 78.4606 61.1464 53.7282 58.1293 43.8538C57.7059 42.4598 57.3142 41.3678 56.9754 40.6824L52.9209 39.0212C52.9209 39.0212 53.5031 41.4143 54.2653 44.7948C55.6839 51.0331 57.7376 60.617 57.9917 64.6597H36.2793V39.8692L32.5741 40.6824C32.5741 40.6824 32.5741 40.7173 32.5635 40.7753C32.2671 42.727 26.8363 77.1362 22.8029 84.7918C22.8029 84.7918 23.364 92.4008 23.4064 94.3176C23.544 99.9634 22.8982 108.165 22.4113 113.346C30.4145 119.12 39.7939 122.431 50.1261 122.431C56.4038 122.431 62.6497 120.119 68.5039 116.25C67.5194 107.236 65.4656 88.4046 65.3809 85.6979C65.3703 84.8498 65.5503 82.1199 65.8361 78.4606Z" fill="#3B2645" fill-opacity="0.5" />
    <path d="M22.6547 82.782L26.2329 65.8446L21.6702 70.5494L22.6547 82.782Z" fill="#543753" fill-opacity="0.05" />
    <path d="M47.1513 102.089C44.2824 102.089 41.8581 100.951 39.942 98.7204C36.8296 95.0843 35.6016 89.1132 35.1253 84.7453C34.6065 80.0172 34.8183 76.1023 34.8288 76.0674L34.8394 75.9629H59.4737L59.4843 76.0674C59.4843 76.1023 59.7066 80.0288 59.1879 84.7453C58.7115 89.1132 57.4835 95.0843 54.3711 98.7204C52.4444 100.951 50.0202 102.089 47.1513 102.089ZM35.03 76.1836C34.9982 76.8458 34.8712 80.4586 35.337 84.722C35.8134 89.0551 37.0308 94.9681 40.1008 98.5578C41.9746 100.742 44.3459 101.857 47.1513 101.857C49.9566 101.857 52.328 100.742 54.2017 98.5578C57.2718 94.9681 58.4892 89.0551 58.9656 84.722C59.4314 80.4586 59.3043 76.8458 59.2726 76.1836H35.03V76.1836Z" fill="white" />
    <path d="M20.4844 43.7028C20.4844 43.7028 16.2817 47.4318 6.59521 69.0625L19.8492 81.5623L27.4713 66.3325C27.4713 66.3325 24.1896 43.0639 20.4844 43.7028Z" fill="#AB8DA8" fill-opacity="0.5" />
    <path d="M22.5488 111.929C22.5488 111.929 28.3818 114.891 29.2922 114.485C30.2026 114.078 29.0805 105.667 28.7947 105.574C28.5088 105.481 23.438 101.218 22.4217 101.485C21.7124 101.671 21.0561 104.169 21.0561 104.169L10.2052 95.1192L18.3672 80.1682L6.59525 69.0625C6.59525 69.0625 2.9324 76.1256 0 82.7356C4.9332 95.5839 12.6612 106.295 22.4217 113.346L22.5488 111.929Z" fill="#FFEDE5" fill-opacity="0.5" />
    <path d="M6.59521 69.0625L18.3671 80.1682L17.2132 82.2825L6.59521 69.0625Z" fill="#E0855C" fill-opacity="0.5" />
    <path d="M68.8107 45.515C70.6951 46.2353 83.5574 64.2996 83.5574 64.2996L69.4777 76.0559C69.4777 76.0559 64.2586 68.1796 63.7611 64.2996C63.2635 60.4195 64.9997 44.0629 68.8107 45.515Z" fill="#AB8DA8" fill-opacity="0.5" />
    <path d="M83.5681 64.3112C83.5681 64.3112 97.3196 85.6166 97.9019 90.2517C98.4841 94.8868 96.748 99.9518 85.2301 99.8705C73.7122 99.7892 63.7294 98.4765 61.1146 99.0225C58.4998 99.5685 52.6667 99.9286 51.6716 99.6149C50.6765 99.3013 47.236 90.2517 47.4053 89.0203C47.5747 87.7889 49.3109 87.0687 49.3109 87.0687C49.3109 87.0687 48.8239 86.2555 48.9615 85.4772C49.0991 84.6988 55.1333 86.3136 56.4566 86.4762C57.7799 86.6388 60.6699 90.2285 61.411 90.4143C62.152 90.6002 80.2122 87.5682 80.2122 87.5682L70.1235 75.5215L83.5681 64.3112Z" fill="#FFEDE5" fill-opacity="0.5" />
    <path d="M83.568 64.3112L70.1234 75.5215L71.6902 77.4034L83.568 64.3112Z" fill="#E0855C" fill-opacity="0.5" />
    <path d="M80.2122 87.5683L87.0509 86.2555C87.0509 86.2555 83.7797 86.0697 83.2398 78.8672L80.2122 87.5683Z" fill="#E0855C" fill-opacity="0.5" />
    <path d="M83.2293 76.0675H50.6765C50.4753 79.7849 50.7823 82.9099 51.2799 85.4423C53.1748 85.756 55.6732 86.3717 56.4671 86.4762C57.7904 86.6389 60.6805 90.2401 61.4215 90.4144C62.1626 90.5886 80.2122 87.5682 80.2122 87.5682C83.7692 85.7908 83.2293 76.0675 83.2293 76.0675Z" fill="#E3DCF7" />
    <path d="M58.2563 86.755C56.139 85.6166 51.2799 85.4539 51.2799 85.4539C53.1748 85.7676 55.6732 86.3833 56.4672 86.4878C57.7905 86.6505 60.6805 90.2517 61.4216 90.4259C61.7497 90.5073 65.3279 89.9729 69.2871 89.3572C63.2741 90.031 60.3629 87.8818 58.2563 86.755Z" fill="#3B2645" fill-opacity="0.5" />
    <path d="M50.6765 76.0675C50.6765 76.0675 48.1358 73.5234 48.6016 72.5243C49.0674 71.5253 51.0576 73.4072 51.0576 73.4072C51.0576 73.4072 49.3532 68.6211 50.613 68.1332C51.8727 67.6452 56.1178 73.1284 56.1178 73.1284C56.1178 73.1284 55.1545 68.0635 55.7261 67.8544C56.2978 67.6452 59.6219 72.3966 59.6219 72.3966C59.6219 72.3966 60.9452 66.3442 62.3214 66.3209C63.6976 66.2977 62.7131 73.2446 62.7131 73.2446C62.7131 73.2446 64.2057 67.9124 65.3385 68.2726C66.4712 68.6327 66.5771 74.3366 66.5771 74.3366C66.5771 74.3366 66.7782 69.9686 67.5934 69.7944C68.4085 69.6201 69.4777 76.0675 69.4777 76.0675H50.6765Z" fill="#679E97" fill-opacity="0.5" />
    <path d="M70.5787 76.0675C70.5787 76.0675 72.2408 70.0616 73.0453 69.9802C73.8499 69.8989 73.9028 74.9407 73.9028 74.9407C73.9028 74.9407 75.5331 69.0277 76.0307 68.8766C76.5282 68.7256 76.8564 72.8148 76.8564 72.8148C76.8564 72.8148 79.4606 68.714 80.064 68.865C80.6675 69.0161 79.8735 72.8148 79.8735 72.8148C79.8735 72.8148 82.3613 68.9347 83.9916 69.5156C85.6218 70.0964 83.2505 76.0559 83.2505 76.0559L70.5787 76.0675Z" fill="#679E97" fill-opacity="0.5" />
    <path d="M83.2293 76.0675C83.2293 76.0675 86.9028 72.3152 85.9394 71.4904C84.9761 70.6656 80.551 73.7789 80.551 73.7789C80.551 73.7789 84.1715 68.6094 84.0021 67.0644C83.8328 65.5193 76.9623 75.3356 76.9623 75.3356C76.9623 75.3356 79.937 68.3306 79.196 67.9589C78.4549 67.5871 75.3955 75.4982 75.3955 75.4982C75.3955 75.4982 76.3059 71.1187 75.3955 71.1419C74.4851 71.1651 73.2253 75.719 73.2253 75.719C73.2253 75.719 71.9656 70.8863 71.1081 70.7005C70.2506 70.5146 70.367 73.4537 70.367 73.4537C70.367 73.4537 69.5942 71.1768 68.8214 71.3045C68.0486 71.4323 68.959 74.4527 68.959 74.4527C68.959 74.4527 66.5877 70.1545 65.2539 70.0848C63.92 70.0151 63.2742 74.6154 63.2742 74.6154C63.2742 74.6154 63.7188 70.1893 62.8296 70.0732C61.9403 69.957 61.3158 74.8593 61.3158 74.8593C61.3158 74.8593 60.8711 67.8892 59.1032 67.7033C57.3353 67.5174 58.7115 73.0355 58.7115 73.0355C58.7115 73.0355 55.8427 70.8515 55.144 71.3045C54.4453 71.7576 56.1391 76.0675 56.1391 76.0675H83.2293Z" fill="#85CCC6" />
    <path d="M66.503 70.8399C66.4924 70.8399 66.4924 70.8399 66.503 70.8399C66.4394 70.8283 66.3971 70.7818 66.3971 70.7121L67.4981 58.4679C67.5087 58.4098 67.551 58.3517 67.6145 58.3633C67.6674 58.3749 67.7204 58.4214 67.7098 58.4911L66.6088 70.7353C66.5982 70.7934 66.5559 70.8399 66.503 70.8399Z" fill="#472938" fill-opacity="0.5" />
</svg>
